/* XPM */
static char *result[] = {
/* columns rows colors chars-per-pixel */
"80 80 197 2 ",
"   c #8F2702",
".  c #8F2904",
"X  c #902701",
"o  c #942B02",
"O  c #9A2F03",
"+  c #932D09",
"@  c #982F0B",
"#  c #9B3105",
"$  c #95300B",
"%  c #9D330A",
"&  c #9F380A",
"*  c #953210",
"=  c #9E3510",
"-  c #A13604",
";  c #A63A04",
":  c #AA3D05",
">  c #A2360C",
",  c #A4390B",
"<  c #AA3D0F",
"1  c #A73911",
"2  c #AB3C12",
"3  c #A53D18",
"4  c #A33711",
"5  c #B03F15",
"6  c #AD410C",
"7  c #B3460D",
"8  c #B74A0E",
"9  c #B94B0E",
"0  c #AD4112",
"q  c #B34415",
"w  c #B54914",
"e  c #BB4E15",
"r  c #B64519",
"t  c #B94619",
"y  c #B6481D",
"u  c #BC4C1B",
"i  c #BF5216",
"p  c #BF531B",
"a  c #B74F24",
"s  c #BA4C22",
"d  c #B75427",
"f  c #BC5327",
"g  c #BD5B2C",
"h  c #B55428",
"j  c #BF6030",
"k  c #C14D1D",
"l  c #C25516",
"z  c #C2521E",
"x  c #C6591D",
"c  c #CA5E1F",
"v  c #CB601F",
"b  c #C55421",
"n  c #CA5623",
"m  c #C65921",
"M  c #CB5B24",
"N  c #C55C2C",
"B  c #CD5F2B",
"V  c #C95529",
"C  c #D35B27",
"Z  c #D35F29",
"A  c #CD6124",
"S  c #C4602F",
"D  c #CC622C",
"F  c #D4652C",
"G  c #D56929",
"H  c #D86B2F",
"J  c #D6652B",
"K  c #C46433",
"L  c #CB6533",
"P  c #C56836",
"I  c #CA6936",
"U  c #C46B39",
"Y  c #CB6E39",
"T  c #D56C35",
"R  c #DC6D34",
"E  c #D36F38",
"W  c #D56631",
"Q  c #C7713D",
"!  c #CC733D",
"~  c #DD7332",
"^  c #D3743E",
"/  c #DD753A",
"(  c #DF7B3E",
")  c #D3783E",
"_  c #E07436",
"`  c #E27538",
"'  c #E57C3A",
"]  c #EA7E3E",
"[  c #CE7B44",
"{  c #CF7F48",
"}  c #CA7641",
"|  c #D27B42",
" . c #DA7D42",
".. c #ED7F41",
"X. c #E7803F",
"o. c #EA813F",
"O. c #D78146",
"+. c #DA8145",
"@. c #D3844B",
"#. c #D9834A",
"$. c #D3884F",
"%. c #DB894D",
"&. c #D68D54",
"*. c #D98C50",
"=. c #DC9255",
"-. c #DC9559",
";. c #DE9A5E",
":. c #E68342",
">. c #ED8542",
",. c #E78947",
"<. c #ED8A46",
"1. c #E58F4E",
"2. c #EE8D49",
"3. c #F38947",
"4. c #F68D49",
"5. c #F08443",
"6. c #E3904E",
"7. c #EF914B",
"8. c #F6924C",
"9. c #FA934E",
"0. c #E38F51",
"q. c #E39454",
"w. c #E59A57",
"e. c #EC9C55",
"r. c #E59758",
"t. c #E39C5D",
"y. c #EC9E5C",
"u. c #EC9452",
"i. c #F49451",
"p. c #FC9550",
"a. c #F49B54",
"s. c #FD9B55",
"d. c #F09A58",
"f. c #EEA056",
"g. c #EDA45D",
"h. c #FCA157",
"j. c #F5A45A",
"k. c #FEA45B",
"l. c #F5A95E",
"z. c #FDAA5D",
"x. c #DF9D60",
"c. c #DFA164",
"v. c #E4A564",
"b. c #E7A966",
"n. c #EFAD65",
"m. c #E1A669",
"M. c #E6AD6D",
"N. c #ECAD6A",
"B. c #E9A363",
"V. c #FFA761",
"C. c #F1AB63",
"Z. c #FEAC63",
"A. c #FFAF69",
"S. c #F4A96A",
"D. c #EDB36D",
"F. c #F7B265",
"G. c #FEB364",
"H. c #FFB866",
"J. c #F4B56D",
"K. c #FDB46B",
"L. c #FEBB6C",
"P. c #E7B272",
"I. c #EAB372",
"U. c #EEBA76",
"Y. c #EEBD7B",
"T. c #FFB771",
"R. c #F4BC75",
"E. c #FEBC73",
"W. c #F5BF7A",
"Q. c #FFBE78",
"!. c #F5C177",
"~. c #FEC274",
"^. c #F4C47C",
"/. c #FEC47B",
"(. c #F6C87F",
"). c #FECB7D",
"_. c #EFC583",
"`. c #F3C580",
"'. c #FFC682",
"]. c #F4C983",
"[. c #FDCC82",
"{. c #F4CC89",
"}. c #FACF8A",
"|. c #FFD284",
" X c #F7D18C",
".X c #FED58B",
"XX c #FED98E",
"oX c #FDD590",
"OX c #F7D995",
"+X c #FEDC94",
"@X c #FCDE9A",
"#X c #FEE096",
"$X c #FEE39C",
"%X c #FEE6A1",
"&X c #FFE9A5",
"*X c #FFECAA",
"=X c None",
/* pixels */
"=X=X=X=X=X=X=X=X=X=X=X=X=X=X=X=X=X=X=X=X=X=X=X=X=X=X=X=X=X=X=X=X=X=X=X=X=X=X=X=X=X=X=X=X=X=X=X=X=X=X=X=X=X=X=X=X=X=X=X=X=X=X=X=X=X=X=X=X=X=X=X=X=X=X=X=X=X=X=X=X",
"=X=X=X=X=X=X=X=X=X=X=X=X=X=X=X=X=X=X=X=X=X=X=X=X=X=X=X=X=X=X=X=X=X=X=X=X=X=X=X=X=X=X=X=X=X=X=X=X=X=X=X=X=X=X=X=X=X=X=X=X=X=X=X=X=X=X=X=X=X=X=X=X=X=X=X=X=X=X=X=X",
"=X=X=X=X=X=X=X=X=X=X=X=X=X=X=X=X=X=X=X=X=X=X=X=X=X=X=X=X=X=X=X=X=X=X=X=X=X=X=X=X=X=X=X=X=X=X=X=X=X=X=X=X=X=X=X=X=X=X=X=X=X=X=X=X=X=X=X=X=X=X=X=X=X=X=X=X=X=X=X=X",
"=X=X=X=X=X=X=X=X=X=X=X=X=X=X=X=X=X=X=X=X=X=X=X=X=X=X=X=X=X=X=X=X=X=X=X=X=X=X=X=X=X=X=X=X=X=X=X=X=X=X=X=X=X=X=X=X=X=X=X=X=X=X=X=X=X=X=X=X=X=X=X=X=X=X=X=X=X=X=X=X",
"=X=X=X=X=X=X=X=X=X=X=X=X=X=X=X=X=X=X=X=X=X=X=X=X=X=X=X=X=X=X=X=X=X=X=X=X=X=X=X=X=X=X=X=X=X=X=X=X=X=X=X=X=X=X=X=X=X=X=X=X=X=X=X=X=X=X=X=X=X=X=X=X=X=X=X=X=X=X=X=X",
"=X=X=X=X=X=X=X=X=X=X=X=X=X=X=X=X=X=X=X=X=X=X=X=X=X=X=X=X=X=X=X=X=X=X=X=X=X=X=X=X=X=X=X=X=X=X=X=X=X=X=X=X=X=X=X=X=X=X=X=X=X=X=X=X=X=X=X=X=X=X=X=X=X=X=X=X=X=X=X=X",
"=X=X=X=X=X=X=X=X=X=X=X=X=X=X=X=X=X=X=X=X=X=X=X=X=X=X=X=X=X=X=X=X=X=X=X=X=X=X=X=X=X=X=X=X=X=X=X=X=X=X=X=X=X=X=X=X=X=X=X=X=X=X=X=X=X=X=X=X=X=X=X=X=X=X=X=X=X=X=X=X",
"=X=X=X=X=X=X=X=X=X=X=X=X=X=X=X=X=X=X=X=X=X=X=X=X=X=X=X=X=X=X=X=X=X=X=X=X=X=X=X=X=X=X=X=X=X=X=X=X=X=X=X=X=X=X=X=X=X=X=X=X=X=X=X=X=X=X=X=X=X=X=X=X=X=X=X=X=X=X=X=X",
"=X=X=X=X=X=X=X=X=X=X=X=X=X=X=X=X=X=X=X=X=X=X=X=X=X=X=X=X=X=X=X=X=X=X=X=X=X=X=X=X=X=X=X=X=X=X=X=X=X=X=X=X=X=X=X=X=X=X=X=X=X=X=X=X=X=X=X=X=X=X=X=X=X=X=X=X=X=X=X=X",
"=X=X=X=X=X=X=X=X=X=X=X=X=X=X=X=X=X=X=X=X=X=X=X=X=X=X=X=X=X=X=X=X=X=X=X=X=X=X=X=X=X=X=X=X=X=X=X=X=X=X=X=X=X=X=X=X=X=X=X=X=X=X=X=X=X=X=X=X=X=X=X=X=X=X=X=X=X=X=X=X",
"=X=X=X=X=X=X=X=X=X=X=X=X=X=X=X=X=X=X=X=X=X=X=X=X=X=X=X=X=X=X=X=X=X=X=X=X=X=X=X=X=X=X=X=X=X=X=X=X=X=X=X=X=X=X=X=X=X=X=X=X=X=X=X=X=X=X=X=X=X=X=X=X=X=X=X=X=X=X=X=X",
"=X=X=X=X=X=X=X=X=X=X=X=X=X=X=X=X=X=X=X=X=X=X=X=X=X=X=X=X=X=X=X=X=X=X=X=X=X=X=X=X=X=X=X=X=X=X=X=X=X=X=X=X=X=X=X=X=X=X=X=X=X=X=X=X=X=X=X=X=X=X=X=X=X=X=X=X=X=X=X=X",
"=X=X=X=X=X=X=X=X=X=X=X=X=X=X=X=X=X=X=X=X=X=X=X=X=X=X=X=X=X=X=X=X=X=X=X=X=X=X=X=X=X=X=X=X=X=X=X=X=X=X=X=X=X=X=X=X=X=X=X=X=X=X=X=X=X=X=X=X=X=X=X=X=X=X=X=X=X=X=X=X",
"=X=X=X=X=X=X=X=X=X=X=X=X=X=X=X=X=X=X=X=X=X=X=X=X=X=X=X=X=X=X=X=X=X=X=X=X=X=X=X=X=X=X=X=X=X=X=X=X=X=X=X=X=X=X=X=X=X=X=X=X=X=X=X=X=X=X=X=X=X=X=X=X=X=X=X=X=X=X=X=X",
"=X=X=X=X=X=X=X=X=X=X=X=X=X=X=X=X=X=X=X=X=X=X=X=X=X=X=X=X=X=X=X=X=X=X=X=X=X=X=X=X=X=X=X=X=X=X=X=X=X=X=X=X=X=X=X=X=X=X=X=X=X=X=X=X=X=X=X=X=X=X=X=X=X=X=X=X=X=X=X=X",
"=X=X=X=X=X=X=X=X=X=X=X=X=X=X=X=X=X=X=X=X=X=X=X=X=X=X=X=X=X=X=X=X=X=X=X=X=X=X=X=X=X=X=X=X=X=X=X=X=X=X=X=X=X=X=X=X=X=X=X=X=X=X=X=X=X=X=X=X=X=X=X=X=X=X=X=X=X=X=X=X",
"=X=X=X=X=X=X=X=X=X=X=X=X=X=X=X=X=X=X=X=X=X=X=X=X=X=X=X=X=X=X=X=X=X=X=X=X=X=X=X=X=X=X=X=X=X=X=X=X=X=X=X=X=X=X=X=X=X=X=X=X=X=X=X=X=X=X=X=X=X=X=X=X=X=X=X=X=X=X=X=X",
"=X=X=X=X=X=X=X=X=X=X=X=X=X=X=X=X=X=X=X=X=X=X=X=X=X=X=X=X=X=X=X=X=X=X=X=X=X=X=X=X=X=X=X=X=X=X=X=X=X=X=X=X=X=X=X=X=X=X=X=X=X=X=X=X=X=X=X=X=X=X=X=X=X=X=X=X=X=X=X=X",
"=X=X=X=X=X=X=X=X=X=X=X=X=X=X=X=X=X=X=X=X=X=X=X=X=X=X=X=X=X=X=X=X=X=X=X=X=X=X=X=X=X=X=X=X=X=X=X=X=X=X=X=X=X=X=X=X=X=X=X=X=X=X=X=X=X=X=X=X=X=X=X=X=X=X=X=X=X=X=X=X",
"=X=X=X=X=X=X=X=X=X=X=X=X=X=X=X=X=X=X=X=X=X=X=X=X=X=X=X=X=X=X=X=X=X=X=X=X=X=X=X=X=X=X=X=X=X=X=X=X=X=X=X=X=X=X=X=X=X=X=X=X=X=X=X=X=X=X=X=X=X=X=X=X=X=X=X=X=X=X=X=X",
"=X=X=X=X=X=X=X=X=X=X=X=X=X=X=X=X=X=X=X=X=X=X=X=X=X=X=X=X=X=X=X=X=X=X=X=X=X=X=X=X=X=X=X=X=X=X=X=X=X=X=X=X=X=X=X=X=X=X=X=X=X=X=X=X=X=X=X=X=X=X=X=X=X=X=X=X=X=X=X=X",
"=X=X=X=X=X=X=X=X=X=X=X=X=X=X=X=X=X=X=X=X=X=X=X=X=X=X=X=X=X=X=X=X=X=X=X=X=X=X=X=X=X=X=X=X=X=X=X=X=X=X=X=X=X=X=X=X=X=X=X=X=X=X=X=X=X=X=X=X=X=X=X=X=X=X=X=X=X=X=X=X",
"=X=X=X=X=X=X=X=X=X=X=X=X=X=X=X=X=X=X=X=X=X=X=X=X=X=X=X=X=X=X=X=X=X=X=X=X=X=X=X=X=X=X=X=X=X=X=X=X=X=X=X=X=X=X=X=X=X=X=X=X=X=X=X=X=X=X=X=X=X=X=X=X=X=X=X=X=X=X=X=X",
"=X=X=X=X=X=X=X=X=X=X=X=X=X=X=X=X=X=X=X=X=X=X=X=X=X=X=X=X=X=X=X=X=X=X=X=X=X=X=X=X=X=X=X=X=X=X=X=X=X=X=X=X=X=X=X=X=X=X=X=X=X=X=X=X=X=X=X=X=X=X=X=X=X=X=X=X=X=X=X=X",
"=X=X=X=X=X=X=X=X=X=X=X=X=X=X=X=X=X=X=X=X=X=X=X=X=X=X=X=X=X=X=X=X=X=X=X=X=X=X=X=X=X=X=X=X=X=X=X=X=X=X=X=X=X=X=X=X=X=X=X=X=X=X=X=X=X=X=X=X=X=X=X=X=X=X=X=X=X=X=X=X",
"=X=X=X=X=X=X=X=X=X=X=X=X=X=X=X=X=X=X=X=X=X=X=X=X=X=X=X=X=X=X=X=X=X=X=X=X=X=X=X=X=X=X=X=X=X=X=X=X=X=X=X=X=X=X=X=X=X=X=X=X=X=X=X=X=X=X=X=X=X=X=X=X=X=X=X=X=X=X=X=X",
"=X=X=X=X=X=X=X=X=X=X=X=X=X=X=X=X=X=X=X=X=X=X=X=X=X=X=X=X=X=X=X=X=X=X=X=X=X=X=X=X=X=X=X=X=X=X=X=X=X=X=X=X=X=X=X=X=X=X=X=X=X=X=X=X=X=X=X=X=X=X=X=X=X=X=X=X=X=X=X=X",
"=X=X=X=X=X=X=X=X=X=X=X=X=X=X=X=X=X=X=X=X=X=X=X=X=X=X=X=X=X=X=X=X=X=X=X=X=X=X=X=X=X=X=X=X=X=X=X=X=X=X=X=X=X=X=X=X=X=X=X=X=X=X=X=X=X=X=X=X=X=X=X=X=X=X=X=X=X=X=X=X",
"=X=X=X=X=X=X=X=X=X=X=X=X=X=X=X=X=X=X=X=X=X=X=X=X=X=X=X=X=X=X=X=X=X=X=X=X=X=X=X=X=X=X=X=X=X=X=X=X=X=X=X=X=X=X=X=X=X=X=X=X=X=X=X=X=X=X=X=X=X=X=X=X=X=X=X=X=X=X=X=X",
"=X=X=X=X=X=X=X=X=X=X=X=X=X=X=X=X=X=X=X=X=X=X=X=X=X=X=X=X=X=X=X=X=X=X=X=X=X=X=X=X=X=X=X=X=X=X=X=X=X=X=X=X=X=X=X=X=X=X=X=X=X=X=X=X=X=X=X=X=X=X=X=X=X=X=X=X=X=X=X=X",
"=X=X=X=X=X=X=X=X=X=X=X=X=X=X=X=X=X=X=X=X=X=X=X=X=X=X=X=X=X=X=X=X=X=X=X=X=X=X=X=X=X=X=X=X=X=X=X=X=X=X=X=X=X=X=X=X=X=X=X=X=X=X=X=X=X=X=X=X=X=X=X=X=X=X=X=X=X=X=X=X",
"=X=X=X=X=X=X=X=X=X=X=X=X=X=X=X=X=X=X=X=X=X=X=X=X=X=X=X=X=X=X=X=X=X=X=X=X=X=X=X=X=X=X=X=X=X=X=X=X=X=X=X=X=X=X=X=X=X=X=X=X=X=X=X=X=X=X=X=X=X=X=X=X=X=X=X=X=X=X=X=X",
"=X=X=X=X=X=X=X=X=X=X=X=X=X=X=X=X=X=X=X=X=X=X=X=X=X=X=X=X=X=X=X=X=X=X=X=X=X=X=X=X=X=X=X=X=X=X=X=X=X=X=X=X=X=X=X=X=X=X=X=X=X=X=X=X=X=X=X=X=X=X=X=X=X=X=X=X=X=X=X=X",
"=X=X=X=X=X=X=X=X=X=X=X=X=X=X=X=X=X=X=X=X=X=X=X=X=X=X=X=X=X=X=X=X=X=X=X=X=X=X=X=X=X=X=X=X=X=X=X=X=X=X=X=X=X=X=X=X=X=X=X=X=X=X=X=X=X=X=X=X=X=X=X=X=X=X=X=X=X=X=X=X",
"=X=X=X=X=X=X=X=X=X=X=X=X=X=X=X=X=X=X=X=X=X=X=X=X=X=X=X=X=X=X=X=X=X=X=X=X=X=X=X=X=X=X=X=X=X=X=X=X=X=X=X=X=X=X=X=X=X=X=X=X=X=X=X=X=X=X=X=X=X=X=X=X=X=X=X=X=X=X=X=X",
"=X=X=X=X=X=X=X=X=X=X=X=X=X=X=X=X=X=X=X=X=X=X=X=X=X=X=X=X=X=X=X=X=X=X=X=X=X=X=X=X=X=X=X=X=X=X=X=X=X=X=X=X=X=X=X=X=X=X=X=X=X=X=X=X=X=X=X=X=X=X=X=X=X=X=X=X=X=X=X=X",
"=X=X=X=X=X=X=X=X=X=X=X=X=X=X=X=X=X=X=X=X=X=X=X=X=X=X=X=X=X=X=X=X=X=X=X=X=X=X=X=X=X=X=X=X=X=X=X=X=X=X=X=X=X=X=X=X=X=X=X=X=X=X=X=X=X=X=X=X=X=X=X=X=X=X=X=X=X=X=X=X",
"=X=X=X=X=X=X=X=X=X=X=X=X=X=X=X=X=X=X=X=X=X=X=X=X=X=X=X=X=X=X=X=X=X=X=X=X=X=X=X=X=X=X=X=X=X=X=X=X=X=X=X=X=X=X=X=X=X=X=X=X=X=X=X=X=X=X=X=X=X=X=X=X=X=X=X=X=X=X=X=X",
"=X=X=X=X=X=X=X=X=X=X=X=X=X=X=X=X=X=X=X=X=X=X=X=X=X=X=X=X=X=X=X=X=X=X=X=X=X=X=X=X=X=X=X=X=X=X=X=X=X=X=X=X=X=X=X=X=X=X=X=X=X=X=X=X=X=X=X=X=X=X=X=X=X=X=X=X=X=X=X=X",
"=X=X=X=X=X=X=X=X=X=X=X=X=X=X=X=X=X=X=X=X=X=X=X=X=X=X=X=X=X=X=X=X=X=X=X=X=X=X=X=X=X=X=X=X=X=X=X=X=X=X=X=X=X=X=X=X=X=X=X=X=X=X=X=X=X=X=X=X=X=X=X=X=X=X=X=X=X=X=X=X",
"=X=X=X=X=X=X=X=X=X=X=X=X=X=X=X=X=X=X=X=X=X=X=X=X=X=X=X=X=X=X=X=X=X=X=X=X=X=X=X=X=X=X=X=X=X=X=X=X=X=X=X=X=X=X=X=X=X=X=X=X=X=X=X=X=X=X=X=X=X=X=X=X=X=X=X=X=X=X=X=X",
"=X=X=X=X=X=X=X=X=X=X=X=X=X=X=X=X=X=X=X=X=X=X=X=X=X=X=X=X=X=X=X=X=X=X=X=X=X=X=X=X=X=X=X=X=X=X=X=X=X=X=X=X=X=X=X=X=X=X=X=X=X=X=X=X=X=X=X=X=X=X=X=X=X=X=X=X=X=X=X=X",
"=X=X=X=X=X=X=X=X=X=X=X=X=X=X=X=X=X=X=X=X=X=X=X=X=X=X=X=X=X=X=X=X=X=X=X=X=X=X=X=X=X=X=X=X=X=X=X=X=X=X=X=X=X=X=X=X=X=X=X=X=X=X=X=X=X=X=X=X=X=X=X=X=X=X=X=X=X=X=X=X",
"=X=X=X=X=X=X=X=X=X=X=X=X=X=X=X=X=X=X=X=X=X=X=X=X=X=X=X=X=X=X=X=X=X=X=X=X=X=X=X=X=X=X=X=X=X=X=X=X=X=X=X=X=X=X=X=X=X=X=X=X=X=X=X=X=X=X=X=X=X=X=X=X=X=X=X=X=X=X=X=X",
"=X=X=X=X=X=X=X=X=X=X=X=X=X=X=X=X=X=X=X=X=X=X=X=X=X=X=X=X=X=X=X=X=X=X=X=X=X=X=X=X=X=X=X=X=X=X=X=X=X=X=X=X=X=X=X=X=X=X=X=X=X=X=X=X=X=X=X=X=X=X=X=X=X=X=X=X=X=X=X=X",
"=X=X=X=X=X=X=X=X=X=X=X=X=X=X=X=X=X=X=X=X=X=X=X=X=X=X=X=X=X=X=X=X=X=X=X=X=X=X=X=X=X=X=X=X=X=X=X=X=X=X=X=X=X=X=X=X=X=X=X=X=X=X=X=X=X=X=X=X=X=X=X=X=X=X=X=X=X=X=X=X",
"=X=X=X=X=X=X=X=X=X=X=X=X=X=X=X=X=X=X=X=X=X=X=X=X=X=X=X=X=X=X=X=X=X=X=X=X=X=X=X=X=X=X=X=X=X=X=X=X=X=X=X=X=X=X=X=X=X=X=X=X=X=X=X=X=X=X=X=X=X=X=X=X=X=X=X=X=X=X=X=X",
"=X=X=X=X=X=X=X=X=X=X=X=X=X=X=X=X=X=X=X=X=X=X=X=X=X=X=X=X=X=X=X=X=X=X=X=X=X=X=X=X=X=X=X=X=X=X=X=X=X=X=X=X=X=X=X=X=X=X=X=X=X=X=X=X=X=X=X=X=X=X=X=X=X=X=X=X=X=X=X=X",
"=X=X=X=X=X=X=X=X=X=X=X=X=X=X=X=X=X=X=X=X=X=X=X=X=X=X=X=X=X=X=X=X=X=X=X=X=X=X=X=X=X=X=X=X=X=X=X=X=X=X=X=X=X=X=X=X=X=X=X=X=X=X=X=X=X=X=X=X=X=X=X=X=X=X=X=X=X=X=X=X",
"=X=X=X=X=X=X=X=X=X=X=X=X=X=X=X=X=X=X=X=X=X=X=X=X=X=X=X=X=X=X=X=X=X=X=X=X=X=X=X=X=X=X=X=X=X=X=X=X=X=X=X=X=X=X=X=X=X=X=X=X=X=X=X=X=X=X=X=X=X=X=X=X=X=X=X=X=X=X=X=X",
"=X=X=X=X=X=X=X=X=X=X=X=X=X=X=X=X=X=X=X=X=X=X=X=X=X=X=X=X=X=X=X=X=X=X=X=X=X=X=X=X=X=X=X=X=X=X=X=X=X=X=X=X=X=X=X=X=X=X=X=X=X=X=X=X=X=X=X=X=X=X=X=X=X=X=X=X=X=X=X=X",
"=X=X=X=X=X=X=X=X=X=X=X=X=X=X=X=X=X=X=X=X=X=X=X=X=X=X=X=X=X=X=X=X@X%X&X&X%X&X&X&X&X&X&X&X&X%X@X$X$X=X=X=X=X=X=X=X=X=X=X=X=X=X=X=X=X=X=X=X=X=X=X=X=X=X=X=X=X=X=X=X",
"=X=X=X=X=X=X=X=X=X=X=X=X=X=X=X=X=X=X=X=X=X=X%X@X$X$X$X$X$X@X X{.{. XOX$X%X$X&X$X&X$X%X&X$X#X{._._.{.OX&X*X*X&X&X*X=X=X=X=X=X=X=X=X=X=X=X=X=X=X=X=X=X=X=X=X=X=X=X",
"=X=X=X=X=X=X=X=X=X=X=X=X=X=X=X=X=X@X@X+X+X@X@X+X.XoX+X$X+X+X{.U.P.M.P.W. X+X$X#X@X$X$X$X$X#X{.I.c.x.c.P.{.@X&X&X$X$X&X*X*X=X=X=X=X=X=X=X=X=X=X=X=X=X=X=X=X=X=X=X",
"=X=X=X=X=X=X=X=X=X=X=X=X=XoX+XoX.X.X.X+X+X+X+XoX{.+X+X+X+X+XoX}.I.;.&.=.;.M.^.{.+X+X#X#X#X$X#X XP.-.$.@.$.c.Y.OX$X#X$X$X&X&X*X*X*X=X=X=X=X=X=X=X=X=X=X=X=X=X=X=X",
"=X=X=X=X=X=X=X=X=X=X.X.X.X.X.X'.W.R.W.'..X.X.XoX+X.X.XXX+XXX+X+XoX`.x.{ ! [ $.;.U.{.+X+X#X#X#X#X@X].c.{ j } } $.c.{.#X$X$X$X$X&X&X*X*X=X=X=X=X=X=X=X=X=X=X=X=X=X",
"=X=X=X=X=X=X=X}.}././.[.}.}.[.!.D.B.y.v.N.R.'.}..X|.|..X.X.X.X.X.X.X.XU.;.[ K P ! *.b.(.XX+X+X+X#X$X$X(.c.Q j h j @.v.(.#X#X#X$X&X&X&X*X*X*X=X=X=X=X=X=X=X=X=X=X",
"=X=X=X=X=X=X'.'.'././.'./.'./.'.!.S.r.%.#.%.r.t.R.[.[.}.}.|.[.}.[..X|.|.}.W.-.Y g g K O.;.!..XXX#X).#X#X(.(.x.} h h j @.v.(.XX#X$X$X&X&X&X*X*X=X=X=X=X=X=X=X=X=X",
"=X=X=X=X'././.Q.J.J.E././.~././././.R.y. .} L I  .t.J./.).[.[.[.[.[.|.|.[.[.|.W.=.P h e g ! w.U.(.).#X).#X).#X).;.Q j j Q *.c.(.#X$X$X$X&X&X&X*X*X=X=X=X=X=X=X=X",
"=X=X=X=XQ.Q.E.T.J.K.E.E.E.E.Q.Q./.~.T.~.R.r.| V N S ^ q.C.~.)./.)./.)./.).[.).).).!.=.j y d S ) w.!.).).#X).).).).(.b.@.! ! $.t.U. X$X#X$X$X#X&X$X&X%X=X=X=X=X=X",
"=X=X=XS.T.T.T.T.T.K.K.T.T.T.T.K.T.T.E.E.E.E.K.q.I f s b L +.B.E.~././././././.).).~.!.!.w.O.v j Q +.f.D.!.).).).).).).).D.w.*.-.c.P.^.OX$X$XOXoX@X%XoXoX=X=X=X=X",
"=X=X=X .y.A.A.T.K.K.K.A.K.K.K.Z.A.K.K.K.K.K.K.L.A.0.L s y s B  .e.K.E.~.~.~.~.~.~.~.~.~.!.!.b.+.O.j O.*.w.n.!.).).).).).).).!.D.g.D.U.]..X+X#X$X@XoX'.'.=X=X=X=X",
"=X=X=XT T 2.V.A.A.A.A.A.A.Z.Z.Z.k.Z.K.Z.G.G.Z.K.K.K.S.1.L y r s D +.e.F.L.E.L.L.~.H.H.~.~.~.~.~.l.6.O.O.O.6.n.F.).).).).).).).XX).(.^.].XX+X@X.X'.'.Q.A.=X=X=X=X",
"=X=X=XT W F  .i.s.V.V.V.Z.Z.Z.Z.Z.V.z.V.Z.Z.z.Z.Z.Z.Z.G.Z.u.E N V B E :.e.Z.H.H.H.~.H.~.H.H.H.~.H.H.F.6.6.6.f.l.F.H.).).).).).).|..X.X.X.X[./.Q.E.A.V.V.=X=X=X=X",
"=X=X=XW W Z F W ` 4.s.s.V.V.V.V.k.V.V.k.k.k.k.k.k.k.k.z.z.z.z.a.' L F T ( ,.a.z.G.G.G.G.H.H.H.H.H.L.H.H.K.g.f.f.C.F.L.~.).).).).|.).)./.T.T.K.V.k.s.V.s.=X=X=X=X",
"=X=X=XW Z Z Z C C C W ..3.9.s.p.s.s.k.k.k.k.k.k.k.h.h.k.k.h.h.k.k.a.:./ / ' :.7.a.z.z.G.z.G.G.G.G.H.H.H.H.H.H.F.F.L.~.~.~.~./.E.E.H.Z.Z.k.s.s.s.s.s.s.s.=X=X=X=X",
"=X=X=XV V C C C C C C C Z H ` ..4.9.p.p.p.s.s.s.h.k.k.k.z.z.z.z.z.z.z.h.7.:.:.,.7.a.z.z.G.G.G.G.G.H.H.H.H.H.L.L.H.H.G.H.G.z.z.k.k.p.p.p.p.p.p.p.p.p.p.p.=X=X=X=X",
"=X=X=Xb k k k b n n n n V V C C C J R ` ..>.3.4.4.8.8.9.8.p.p.h.h.h.h.j.l.j.a.a.f.j.l.l.l.G.z.Z.z.z.z.l.l.j.j.h.a.a.a.p.9.8.8.4.4.4.4.8.4.4.4.4.3.3.3.4.=X=X=X=X",
"=X=X=X=X5 k 5 5 k k k n z z n x n n n n M M C F R R _ ' X.' o.o.>.>.<.<.<.2.4.2.4.2.4.2.2.2.,.<.,.,.o.o.:.o.:.5.o.o.o.o.5.5.>.>.5.o.>.>.5.5.o.` ~ ~ ` ` =X=X=X=X",
"=X=X=X=Xk 5 5 5 5 5 k k k k k k k b k b b k k b b b b n x M M A B B F F F F F F G G F F F F F F G H ~ _ ` ' ' ' X.X.o.' ' ' ' ' X.' X.' ' ` H G H H F R =X=X=X=X",
"=X=X=X=X=Xs 5 2 1 2 5 5 t t t t t t u t t u t u u u p u z p b z x p b x x b x b x m b m m M D G H ~ ~ ~ ~ ~ ~ ~ ~ ~ ~ ~ ~ ~ ~ ~ ~ ~ ~ ~ H G F A M N F =X=X=X=X=X",
"=X=X=X=X=X=X=X5 1 2 2 2 2 5 5 5 5 q q q q q r r r t t w y t t t u t y u u u u p u u p z m A G G G G G G G G G G G A A G G G G G G G G A M M M m m D =X=X=X=X=X=X",
"=X=X=X=X=X=X=X=X3 3 4 4 4 > 4 1 1 2 < 2 2 2 2 2 2 q 0 0 0 2 q q q q q q q q w r r w i x c v v c v v v v c c c c c c c c v c c c v x x l x p p m =X=X=X=X=X=X=X=X",
"=X=X=X=X=X=X=X=X=X=X3 = @ % @ @ % % > > , > , > , > > > % 4 > , , < < < 6 < 2 6 6 7 i l l l l l l l l l l l l l l l l l i i e i e e w w w u =X=X=X=X=X=X=X=X=X=X",
"=X=X=X=X=X=X=X=X=X=X=X=X=X% @ + o o o @ @ O % O O @ O % O @ @ O % - > - > , > - , 7 9 9 9 9 9 9 9 7 8 8 8 9 9 9 9 9 8 7 7 6 6 6 6 6 7 w =X=X=X=X=X=X=X=X=X=X=X=X",
"=X=X=X=X=X=X=X=X=X=X=X=X=X=X=X=X* + + X X o X . X X X X X X o o o o o # o o o # O - : : 6 : : : : : : : : : : : ; ; - - - - , , 0 =X=X=X=X=X=X=X=X=X=X=X=X=X=X=X",
"=X=X=X=X=X=X=X=X=X=X=X=X=X=X=X=X=X=X=X=X+ + . . .       X X X X   X X X o o o o o o O O O O O O O O O O O O # # # # & , =X=X=X=X=X=X=X=X=X=X=X=X=X=X=X=X=X=X=X=X",
"=X=X=X=X=X=X=X=X=X=X=X=X=X=X=X=X=X=X=X=X=X=X=X=X=X=X=X$ $ $ O + + O o o O o o o o o o O % O O O # # & & & =X=X=X=X=X=X=X=X=X=X=X=X=X=X=X=X=X=X=X=X=X=X=X=X=X=X=X",
"=X=X=X=X=X=X=X=X=X=X=X=X=X=X=X=X=X=X=X=X=X=X=X=X=X=X=X=X=X=X=X=X=X=X=X=X=X=X=X=X=X=X=X=X=X=X=X=X=X=X=X=X=X=X=X=X=X=X=X=X=X=X=X=X=X=X=X=X=X=X=X=X=X=X=X=X=X=X=X=X",
"=X=X=X=X=X=X=X=X=X=X=X=X=X=X=X=X=X=X=X=X=X=X=X=X=X=X=X=X=X=X=X=X=X=X=X=X=X=X=X=X=X=X=X=X=X=X=X=X=X=X=X=X=X=X=X=X=X=X=X=X=X=X=X=X=X=X=X=X=X=X=X=X=X=X=X=X=X=X=X=X"
};
