/* XPM */
static char *result[] = {
/* columns rows colors chars-per-pixel */
"80 80 195 2 ",
"   c #9D350B",
".  c #993511",
"X  c #AC3E02",
"o  c #AE4105",
"O  c #AE4409",
"+  c #B44609",
"@  c #B64B0C",
"#  c #B94E0F",
"$  c #B04205",
"%  c #B9510F",
"&  c #AE4D1B",
"*  c #B54C14",
"=  c #BA4D12",
"-  c #B64719",
";  c #BD4D1B",
":  c #B65015",
">  c #BD5314",
",  c #BF5814",
"<  c #BC521A",
"1  c #BC591A",
"2  c #B64F22",
"3  c #B94D20",
"4  c #BF5923",
"5  c #BA5724",
"6  c #C14F1D",
"7  c #C15616",
"8  c #C15A16",
"9  c #C3541B",
"0  c #C45B1A",
"q  c #C95D1D",
"w  c #C6621C",
"e  c #C9621F",
"r  c #C55321",
"t  c #CB5523",
"y  c #C65D22",
"u  c #CC5A24",
"i  c #CC5B29",
"p  c #D15B26",
"a  c #D35E29",
"s  c #C66121",
"d  c #CD6323",
"f  c #CC6B25",
"g  c #C3662B",
"h  c #CC642B",
"j  c #C76C29",
"k  c #CB6B2C",
"l  c #D26626",
"z  c #D36927",
"x  c #D4632C",
"c  c #D9652E",
"v  c #D46A2A",
"b  c #D86D2C",
"n  c #CE712F",
"m  c #D4732C",
"M  c #DA712F",
"N  c #D97C2E",
"B  c #CD6E31",
"V  c #D46630",
"C  c #D56C34",
"Z  c #DA6C34",
"A  c #D66D39",
"S  c #C5733A",
"D  c #CF7738",
"F  c #CC7534",
"G  c #D57232",
"H  c #DC7331",
"J  c #D47A34",
"K  c #DB7B35",
"L  c #D5743B",
"P  c #DA743A",
"I  c #D4783E",
"U  c #DB7C3D",
"Y  c #E07734",
"T  c #E17936",
"R  c #E47638",
"E  c #E57C3A",
"W  c #E97E3C",
"Q  c #D57D43",
"!  c #DB7D42",
"~  c #E17F43",
"^  c #D6823F",
"/  c #DD833A",
"(  c #DF893D",
")  c #DD8232",
"_  c #E4823E",
"`  c #E9803D",
"'  c #E18C3F",
"]  c #E6923F",
"[  c #CC844A",
"{  c #CD8142",
"}  c #D48146",
"|  c #DB8245",
" . c #DC8B44",
".. c #D5854B",
"X. c #DB8549",
"o. c #D78A4F",
"O. c #DD8A4C",
"+. c #D78D53",
"@. c #DA8D51",
"#. c #DB9255",
"$. c #DA955A",
"%. c #DC9A5D",
"&. c #D59358",
"*. c #E48542",
"=. c #ED8541",
"-. c #E48B43",
";. c #EC8A45",
":. c #E38B4C",
">. c #EB8D4D",
",. c #F28945",
"<. c #F68E49",
"1. c #F98F4B",
"2. c #F28645",
"3. c #E49245",
"4. c #E4944B",
"5. c #ED944C",
"6. c #E7984B",
"7. c #EA9B4D",
"8. c #F2934D",
"9. c #FA914D",
"0. c #E38F50",
"q. c #E39354",
"w. c #EB9454",
"e. c #EC9C53",
"r. c #E69758",
"t. c #E39A5B",
"y. c #EB9C5B",
"u. c #E49B55",
"i. c #F39452",
"p. c #FE9650",
"a. c #F39955",
"s. c #FF9B55",
"d. c #F39C5A",
"f. c #FB9E5A",
"g. c #EEA34F",
"h. c #EDA354",
"j. c #EEA956",
"k. c #EDA05F",
"l. c #EEAC5C",
"z. c #F0A356",
"x. c #F1AC57",
"c. c #F4A25D",
"v. c #FEA25C",
"b. c #F2AD5C",
"n. c #F3B15D",
"m. c #DD9D61",
"M. c #E39D61",
"N. c #DEA165",
"B. c #DDA46B",
"V. c #DEAA71",
"C. c #E3A365",
"Z. c #EAA463",
"A. c #EBAD64",
"S. c #E2A669",
"D. c #E4AB6C",
"F. c #ECAB6B",
"G. c #F4A562",
"H. c #FCA662",
"J. c #F4AA66",
"K. c #FFA963",
"L. c #F2AD6B",
"P. c #FEAE69",
"I. c #EFB264",
"U. c #EEB96E",
"Y. c #EAB26C",
"T. c #F5B562",
"R. c #F6BA65",
"E. c #F9BC64",
"W. c #FEB26B",
"Q. c #F8BD69",
"!. c #F2B16E",
"~. c #E3AD71",
"^. c #E8AF70",
"/. c #E6B376",
"(. c #ECB373",
"). c #E0B178",
"_. c #E9B679",
"`. c #ECBA7A",
"'. c #ECB971",
"]. c #F3B573",
"[. c #F8B171",
"{. c #F2BB7C",
"}. c #F4C06E",
"|. c #FAC36D",
" X c #F7C270",
".X c #FBC570",
"XX c #FCCB74",
"oX c #F6C97D",
"OX c #FED27C",
"+X c #E3BE8B",
"@X c #F2CE89",
"#X c #FBD281",
"$X c #E5C794",
"%X c #EACF9E",
"&X c None",
/* pixels */
"&X&X&X&X&X&X&X&X&X&X&X&X&X&X&X&X&X&X&X&X&X&X&X&X&X&X&X&X&X&X&X&X&X&X&X&X&X&X&X&X&X&X&X&X&X&X&X&X&X&X&X&X&X&X&X&X&X&X&X&X&X&X&X&X&X&X&X&X&X&X&X&X&X&X&X&X&X&X&X&X",
"&X&X&X&X&X&X&X&X&X&X&X&X&X&X&X&X&X&X&X&X&X&X&X&X&X&X&X&X&X&X&X&X&X&X&X&X&X&X&X&X&X&X&X&X&X&X&X&X&X&X&X&X&X&X&X&X&X&X&X&X&X&X&X&X&X&X&X&X&X&X&X&X&X&X&X&X&X&X&X&X",
"&X&X&X&X&X&X&X&X&X&X&X&X&X&X&X&X&X&X&X&X&X&X&X&X&X&X&X&X&X&X&X&X&X&X&X&X&X&X&X&X&X&X&X&X&X&X&X&X&X&X&X&X&X&X&X&X&X&X&X&X&X&X&X&X&X&X&X&X&X&X&X&X&X&X&X&X&X&X&X&X",
"&X&X&X&X&X&X&X&X&X&X&X&X&X&X&X&X&X&X&X&X&X&X&X&X&X&X&X&X&X&X&X&X&X&X&X&X&X&X&X&X&X&X&X&X&X&X&X&X&X&X&X&X&X&X&X&X&X&X&X&X&X&X&X&X&X&X&X&X&X&X&X&X&X&X&X&X&X&X&X&X",
"&X&X&X&X&X&X&X&X&X&X&X&X&X&X&X&X&X&X&X&X&X&X&X&X&X&X&X&X&X&X&X&X&X&X&X&X&X&X&X&X&X&X&X&X&X&X&X&X&X&X&X&X&X&X&X&X&X&X&X&X&X&X&X&X&X&X&X&X&X&X&X&X&X&X&X&X&X&X&X&X",
"&X&X&X&X&X&X&X&X&X&X&X&X&X&X&X&X&X&X&X&X&X&X&X&X&X&X&X&X&X&X&X&X&X&X&X&X&X&X&X&X&X&X&X&X&X&X&X&X&X&X&X&X&X&X&X&X&X&X&X&X&X&X&X&X&X&X&X&X&X&X&X&X&X&X&X&X&X&X&X&X",
"&X&X&X&X&X&X&X&X&X&X&X&X&X&X&X&X&X&X&X&X&X&X&X&X&X&X&X&X&X&X&X&X&X&X&X&X&X&X&X&X&X&X&X&X&X&X&X&X&X&X&X&X&X&X&X&X&X&X&X&X&X&X&X&X&X&X&X&X&X&X&X&X&X&X&X&X&X&X&X&X",
"&X&X&X&X&X&X&X&X&X&X&X&X&X&X&X&X&X&X&X&X&X&X&X&X&X&X&X&X&X&X&X&X&X&X&X&X&X&X&X&X&X&X&X&X&X&X&X&X&X&X&X&X&X&X&X&X&X&X&X&X&X&X&X&X&X&X&X&X&X&X&X&X&X&X&X&X&X&X&X&X",
"&X&X&X&X&X&X&X&X&X&X&X&X&X&X&X&X&X&X&X&X&X&X&X&X&X&X&X&X&X&X&X&X&X&X&X&X&X&X&X&X&X&X&X&X&X&X&X&X&X&X&X&X&X&X&X&X&X&X&X&X&X&X&X&X&X&X&X&X&X&X&X&X&X&X&X&X&X&X&X&X",
"&X&X&X&X&X&X&X&X&X&X&X&X&X&X&X&X&X&X&X&X&X&X&X&X&X&X&X&X&X&X&X&X&X&X&X&X&X&X&X&X&X&X&X&X&X&X&X&X&X&X&X&X&X&X&X&X&X&X&X&X&X&X&X&X&X&X&X&X&X&X&X&X&X&X&X&X&X&X&X&X",
"&X&X&X&X&X&X&X&X&X&X&X&X&X&X&X&X&X&X&X&X&X&X&X&X&X&X&X&X&X&X&X&X&X&X&X&X&X&X&X&X&X&X&X&X&X&X&X&X&X&X&X&X&X&X&X&X&X&X&X&X&X&X&X&X&X&X&X&X&X&X&X&X&X&X&X&X&X&X&X&X",
"&X&X&X&X&X&X&X&X&X&X&X&X&X&X&X&X&X&X&X&X&X&X&X&X&X&X&X&X&X&X&X&X&X&X&X&X&X&X&X&X&X&X&X&X&X&X&X&X&X&X&X&X&X&X&X&X&X&X&X&X&X&X&X&X&X&X&X&X&X&X&X&X&X&X&X&X&X&X&X&X",
"&X&X&X&X&X&X&X&X&X&X&X&X&X&X&X&X&X&X&X&X&X&X&X&X&X&X&X&X&X&X&X&X&X&X&X&X&X&X&X&X&X&X&X&X&X&X&X&X&X&X&X&X&X&X&X&X&X&X&X&X&X&X&X&X&X&X&X&X&X&X&X&X&X&X&X&X&X&X&X&X",
"&X&X&X&X&X&X&X&X&X&X&X&X&X&X&X&X&X&X&X&X&X&X&X&X&X&X&X&X&X&X&X&X&X&X&X&X&X&X&X&X&X&X&X&X&X&X&X&X&X&X&X&X&X&X&X&X&X&X&X&X&X&X&X&X&X&X&X&X&X&X&X&X&X&X&X&X&X&X&X&X",
"&X&X&X&X&X&X&X&X&X&X&X&X&X&X&X&X&X&X&X&X&X&X&X&X&X&X&X&X&X&X&X&X&X&X&X&X&X&X&X&X&X&X&X&X&X&X&X&X&X&X&X&X&X&X&X&X&X&X&X&X&X&X&X&X&X&X&X&X&X&X&X&X&X&X&X&X&X&X&X&X",
"&X&X&X&X&X&X&X&X&X&X&X&X&X&X&X&X&X&X&X&X&X&X&X&X&X&X&X&X&X$X).&X&X&X&X&X&X&X&X&X&X&X&X&X&X&X&X&X&X&X&X&X&X&X&X&X&X&X&X&X&X&X&X&X&X&X&X&X&X&X&X&X&X&X&X&X&X&X&X&X",
"&X&X&X&X&X&X&X&X&X&X&X&X&X&X&X&X&X&X&X&X&X&X&X&X&X1 w w w j f f m m ) ) ] g.x.U..X&X&X&X&X&X&X&X&X&X&X&X&X&X&X&X&X&X&X&X&X&X&X&X&X&X&X&X&X&X&X&X&X&X&X&X&X&X&X&X",
"&X&X&X&X&X&X&X&X&X&X&X&X&X&X&X&X&X&X&X&X&X&XO O @ % > , 1 8 w w j  .^ g.|.|.XXoX@XOXOX#X`.%X&X&X&X&X&X&X&X&X&X&X&X&X&X&X&X&X&X&X&X&X&X&X&X&X&X&X&X&X&X&X&X&X&X&X",
"&X&X&X&X&X&X&X&X&X&X&X&X&X&X&X&X&X&X$X[ O o o o @ @ % % , 1 w w j &.u.n.n.E.R.l.I.XXXXXX X'.#X&X&X&X&X&X&X&X&X&X&X&X&X&X&X&X&X&X&X&X&X&X&X&X&X&X&X&X&X&X&X&X&X&X",
"&X&X&X&X&X&X&X&X&X&X&X&X&X&X&X&X&X* 5 O o o o O @ @ > { { 8 8 w w w ] g.j.x.x.T.n.E.Q.|. XU.@X#XOX&X&X&X&X&X&X&X&X&X&X&X.   &X&X&X&X&X&X&X&X&X&X&X&X&X&X&X&X&X&X",
"&X&X&X&X&X&X&X&X&X&X&X&X&X&X&X= # + + S [ : + @ # # 7 S S 0 1 w w f ] 6.6.g.g.j.I.n.n.T.T.l.A. XXXXXXX&X&XG / h.A.Y.OX#.&   * F V.&X&X&X&X&X&X&X&X&X&X&X&X&X&X&X",
"&X&X&X&X&X&X&X&X&X&X&X&X&X&X7 # = # # g S > # # # % 7 > , 8 0 0 w w ) ] 3.3.3.4./.I.h.j.l.T.T.R.Q.|..XQ.g s m 3.h.I.l.R.l.J * , j / 6.&X&X&X&X&X&X&X&X&X&X&X&X&X",
"&X&X&X&X&X&X&X&X&X&X&X&Xy 7 7 7 7 7 7 # # = > > 7 7 7 0 0 0 q 0 w w j ) / ( ]  . .4.g.g.h.j.x.n.T.T.Q.|.T.B 0 z ^ V. .m.D.3.G : 0 f / 7.&X&X&X&X&X&X&X&X&X&X&X&X",
"&X&X&X&X&X&X&X&X&X&X&X4 0 0 0 7 h 9 0 9 7 0 7 0 9 7 0 0 0 0 w D n f w m J / / ( ( ' 3. .6.e.h.`.D.x.n.T.Q.b.g = 0 g k g n m G s ; 0 m -.h.&X&X&X&X&X&X&X&X&X&X&X",
"&X&X&X&X&X&X&X&X&X&X2 q 0 0 q q &.&.u q q 0 q 0 q q q q q q d $.+.e f z m K K / _ ( ' -.3.4.6.t.q.j.b.b.K.T.e.1 * 0 q e d e l q ; = I V.O.7.&X&X&X&X&X&X&X&X&X&X",
"&X&X&X&X&X&X&X&X&X2 ; u l l l d d k d d l d l e l d d d d l l d n z z z m m G K K / / _ -.-.3.3.6.u._.A.x.b.n.U ; ; 9 d l d d l q ; s B G -.h.&X&X&X&X&X&X&X&X&X",
"&X&X&X&X&X&X&X&X&X- ; z l v l v z l v z l l z z v l l l z z l l m U G v m M G K K K K / / *.-.-.4.-.:.e.h.z.x.7.y y r h v z l l l q u l G N.D.e.&X&X&X&X&X&X&X&X",
"&X&X&X&X&X&X&X&X3 - < v b b b b b b b b b b U M.U b b b b b b b | B.} M M M H H K K E / _ _ ' -.:.e.e.7.7.e.z.e.v s d l b b b b b u l l v G U -.e.&X&X&X&X&X&X&X",
"&X&X&X&X&X&X&X5 ; ; ; c H H H H M Y M M M H | O.H M H H H M M H v v H M H Y H T K E _ E _ _ ' *.4.D.C.5.5.e.e.z.H l l b b H M Y Y v v b M Z H Y -.:.&X&X&X&X&X&X",
"&X&X&X&X&X&X&X6 ; ; ; u Y K Y Y Y Y Y Y Y Y Y H Y Y Y Y Y Y Y Y Z Y Y Y T T T T T E E _ ` ` ;.*.*.*.-.5.8.e.a.7.K c b Z Y Y Y Y Y b Z Y t.M.E K R E &X&X&X&X&X&X",
"&X&X&X&X&X&Xr 3 6 6 6 r c E E E E E W E W E E E r.M.W E E E E E E E E E E E ` E E ` ` ` _ ;.;.;.;.5.5.5.5.7.a.;.E Y Y E W :.W E E Y Y E :.| E E E E =.&X&X&X&X&X",
"&X&X&X&X&X&Xr r 6 6 t r u Y ` ` W W W ` ` ` ` W *.q.=.W W ` ` ` ` ` ` ` ` ` ` ` W ` ;.` ` ;.;.;.;.;.;.8.8.8.5.` W R W ` :.~.>.W ` W W ` W W ` ` W W =.&X&X&X&X&X",
"&X&X&X&X&X&Xr r r r r t t p E 2.=.2.=.=.=.=.=.=.` ` 2.` =.=.2.=.=.=.` 2.` ` ,.2.w.w.=.=.=.,.=.;.8.<.5.8.5.<.=.=.=.=.=.=.=.W ;.` =.~ =.2.` ` ` ,.` ` ,.&X&X&X&X&X",
"&X&X&X&X&Xt t t t t t t u t p W ,.,.,.2.,.,.,.2.<.,.,.,.,.,.,.,.,.,.,.,.<.,.,.,.q.F.<.,.,.<.<.<.<.8.<.<.<.,.2.,.,.2.,.,.2.,.,.,.<.2.2.,.,.<.,.,.<.,.,.<.&X&X&X&X",
"&X&X&X&X&Xi t t t t u p u u p a R ,.1.<.<.<.<.<.<.<.<.<.<.<.<.<.<.<.<.<.<.<.<.<.<.,.<.<.<.<.<.9.<.<.<.<.<.<.<.<.<.<.<.<.<.<.<.<.<.<.<.<.<.<.<.<.<.<.<.<.&X&X&X&X",
"&X&X&X&X&Xa p t t p p p p a a a a H 2.1.p.1.9.9.9.9.9.9.9.9.9.9.9.9.9.9.9.9.9.9.9.9.9.9.9.9.9.9.9.9.9.9.9.9.9.9.9.1.9.9.9.9.9.9.9.9.1.p.9.9.9.9.9.9.9.9.&X&X&X&X",
"&X&X&X&XV a a t t p p p a a a a a a c ~ 1.p.p.p.9.p.p.p.p.p.p.p.p.p.p.9.9.p.p.p.p.p.p.p.p.p.p.p.p.p.9.p.p.p.p.p.p.p.p.9.9.p.p.p.p.p.p.p.p.p.p.p.p.p.p.p.s.&X&X&X",
"&X&X&X&XA a a a p p a a x a a c c a c c Z =.p.s.s.s.s.s.s.s.s.s.s.s.s.v.s.s.s.s.s.s.s.s.s.s.s.s.s.s.s.s.s.s.p.s.s.s.s.s.s.s.s.p.p.p.s.s.s.s.s.s.s.s.s.s.f.&X&X&X",
"&X&X&X&XA V x V i i a a x x V V V c c c Z Z P ;.s.v.v.v.v.v.H.f.v.v.v.v.v.v.v.v.v.v.v.v.v.v.v.v.v.v.v.v.v.i.8.s.v.v.v.v.v.v.s.i.i.p.s.s.f.v.v.v.v.v.f.f.H.&X&X&X",
"&X&X&X&X&XC C C C V V V V V V V Z Z Z Z Z Z Z P P *.a.v.K.H.H.H.K.v.K.K.K.K.K.v.K.K.K.K.K.K.v.K.K.K.K.f.i.>.>.i.c.v.H.H.v.d.i.a.a.a.d.d.d.f.f.v.v.v.v.G.&X&X&X&X",
"&X&X&X&X&X&XL A A A C L C C B Z Z A A L A G P P P P U ~ >.a.H.P.W.W.W.P.P.W.P.W.P.W.W.W.P.W.P.W.K.G.w.>.>.>.w.w.a.a.d.d.d.d.d.d.d.c.d.c.c.d.c.d.d.G.P.&X&X&X&X&X",
"&X&X&X&X&X&X&XQ I L L G L L L D G L A L L P I P P U ! ! ! ! *.0.e.c.G.P.P.W.[.[.W.W.W.W.W.P.G.y.y.w.w.w.0.w.w.e.y.y.y.d.y.d.y.G.G.G.G.G.G.c.y.y.G.[.&X&X&X&X&X&X",
"&X&X&X&X&X&X&X&X&XQ Q Q I I I I Q L Q L P I I L I I Q | ! ! X.! | X.X.:.0.q.w.y.r.r.y.r.q.w.q.w.0.w.y.w.y.y.y.y.y.d.k.y.y.y.G.G.G.G.J.J.J.P.L.[.&X&X&X&X&X&X&X&X",
"&X&X&X&X&X&X&X&X&X&X&X} Q Q Q Q Q Q Q Q Q Q Q I I I | | ! X.X.X.X.X.:.X.:.@.O.@.q.4.q.q.q.r.w.r.r.y.t.y.y.y.k.y.y.Z.Z.L.L.F.L.F.L.!.!.[.].{.&X&X&X&X&X&X&X&X&X&X",
"&X&X&X&X&X&X&X&X&X&X&X&X&Xo.} } } Q } ..........} X.X.| X.X.O.X.:.O.O.@.q.@.q.q.q.q.q.q.#.q.t.r.t.M.y.Z.Z.Z.Z.Z.Z.F.!.^.(.].(.].[.{.{.{.&X&X&X&X&X&X&X&X&X&X&X&X",
"&X&X&X&X&X&X&X&X&X&X&X&X&X&X&X&X+.+.........o.o.+.@.+.o.+.@.@.@.#.#.#.$.$.t.%.t.%.t.%.#.u.t.C.C.C.Z.Z.C.C.Z.Z.F.^.(.(.`.(.`.`.{.+X&X&X&X&X&X&X&X&X&X&X&X&X&X&X&X",
"&X&X&X&X&X&X&X&X&X&X&X&X&X&X&X&X&X&X&X&X+.+.+.+.+.+.+.&.&.#.&.$.$.%.%.%.%.m.m.m.C.N.C.C.S.B.S.S.F.D.~.D.D.(.(.(.`._.`.`.`.&X&X&X&X&X&X&X&X&X&X&X&X&X&X&X&X&X&X&X",
"&X&X&X&X&X&X&X&X&X&X&X&X&X&X&X&X&X&X&X&X&X&X&X&X&X&X&X&.%.%.%.m.m.%.m.%.m.C.N.N.N.C.B.D.D.D.D.~.~.~./._._._.&X&X&X&X&X&X&X&X&X&X&X&X&X&X&X&X&X&X&X&X&X&X&X&X&X&X",
"&X&X&X&X&X&X&X&X&X&X&X&X&X&X&X&X&X&X&X&X&X&X&X&X&X&X&X&X&X&X&X&X&X&X&X&X&X&X&X&X&X&X&X&X&X&X&X&X&X&X&X&X&X&X&X&X&X&X&X&X&X&X&X&X&X&X&X&X&X&X&X&X&X&X&X&X&X&X&X&X",
"&X&X&X&X&X&X&X&X&X&X&X&X&X&X&X&X&X&X&X&X&X&X&X&X&X&X&X&X&X&X&X&X&X&X&X&X&X&X&X&X&X&X&X&X&X&X&X&X&X&X&X&X&X&X&X&X&X&X&X&X&X&X&X&X&X&X&X&X&X&X&X&X&X&X&X&X&X&X&X&X",
"&X&X&X&X&X&X&X&X&X&X&X&X&X&X&X&X&X&X&X&X&X&X&X&X&X&X&X&X&X&X&X&X&X&X&X&X&X&X&X&X&X&X&X&X&X&X&X&X&X&X&X&X&X&X&X&X&X&X&X&X&X&X&X&X&X&X&X&X&X&X&X&X&X&X&X&X&X&X&X&X",
"&X&X&X&X&X&X&X&X&X&X&X&X&X&X&X&X&X&X&X&X&X&X&X&X&X&X&X&X&X&X&X&X&X&X&X&X&X&X&X&X&X&X&X&X&X&X&X&X&X&X&X&X&X&X&X&X&X&X&X&X&X&X&X&X&X&X&X&X&X&X&X&X&X&X&X&X&X&X&X&X",
"&X&X&X&X&X&X&X&X&X&X&X&X&X&X&X&X&X&X&X&X&X&X&X&X&X&X&X&X&X&X&X&X&X&X&X&X&X&X&X&X&X&X&X&X&X&X&X&X&X&X&X&X&X&X&X&X&X&X&X&X&X&X&X&X&X&X&X&X&X&X&X&X&X&X&X&X&X&X&X&X",
"&X&X&X&X&X&X&X&X&X&X&X&X&X&X&X&X&X&X&X&X&X&X&X&X&X&X&X&X&X&X&X&X&X&X&X&X&X&X&X&X&X&X&X&X&X&X&X&X&X&X&X&X&X&X&X&X&X&X&X&X&X&X&X&X&X&X&X&X&X&X&X&X&X&X&X&X&X&X&X&X",
"&X&X&X&X&X&X&X&X&X&X&X&X&X&X&X&X&X&X&X&X&X&X&X&X&X&X&X&X&X&X&X&X&X&X&X&X&X&X&X&X&X&X&X&X&X&X&X&X&X&X&X&X&X&X&X&X&X&X&X&X&X&X&X&X&X&X&X&X&X&X&X&X&X&X&X&X&X&X&X&X",
"&X&X&X&X&X&X&X&X&X&X&X&X&X&X&X&X&X&X&X&X&X&X&X&X&X&X&X&X&X&X&X&X&X&X&X&X&X&X&X&X&X&X&X&X&X&X&X&X&X&X&X&X&X&X&X&X&X&X&X&X&X&X&X&X&X&X&X&X&X&X&X&X&X&X&X&X&X&X&X&X",
"&X&X&X&X&X&X&X&X&X&X&X&X&X&X&X&X&X&X&X&X&X&X&X&X&X&X&X&X&X&X&X&X&X&X&X&X&X&X&X&X&X&X&X&X&X&X&X&X&X&X&X&X&X&X&X&X&X&X&X&X&X&X&X&X&X&X&X&X&X&X&X&X&X&X&X&X&X&X&X&X",
"&X&X&X&X&X&X&X&X&X&X&X&X&X&X&X&X&X&X&X&X&X&X&X&X&X&X&X&X&X&X&X&X&X&X&X&X&X&X&X&X&X&X&X&X&X&X&X&X&X&X&X&X&X&X&X&X&X&X&X&X&X&X&X&X&X&X&X&X&X&X&X&X&X&X&X&X&X&X&X&X",
"&X&X&X&X&X&X&X&X&X&X&X&X&X&X&X&X&X&X&X&X&X&X&X&X&X&X&X&X&X&X&X&X&X&X&X&X&X&X&X&X&X&X&X&X&X&X&X&X&X&X&X&X&X&X&X&X&X&X&X&X&X&X&X&X&X&X&X&X&X&X&X&X&X&X&X&X&X&X&X&X",
"&X&X&X&X&X&X&X&X&X&X&X&X&X&X&X&X&X&X&X&X&X&X&X&X&X&X&X&X&X&X&X&X&X&X&X&X&X&X&X&X&X&X&X&X&X&X&X&X&X&X&X&X&X&X&X&X&X&X&X&X&X&X&X&X&X&X&X&X&X&X&X&X&X&X&X&X&X&X&X&X",
"&X&X&X&X&X&X&X&X&X&X&X&X&X&X&X&X&X&X&X&X&X&X&X&X&X&X&X&X&X&X&X&X&X&X&X&X&X&X&X&X&X&X&X&X&X&X&X&X&X&X&X&X&X&X&X&X&X&X&X&X&X&X&X&X&X&X&X&X&X&X&X&X&X&X&X&X&X&X&X&X",
"&X&X&X&X&X&X&X&X&X&X&X&X&X&X&X&X&X&X&X&X&X&X&X&X&X&X&X&X&X&X&X&X&X&X&X&X&X&X&X&X&X&X&X&X&X&X&X&X&X&X&X&X&X&X&X&X&X&X&X&X&X&X&X&X&X&X&X&X&X&X&X&X&X&X&X&X&X&X&X&X",
"&X&X&X&X&X&X&X&X&X&X&X&X&X&X&X&X&X&X&X&X&X&X&X&X&X&X&X&X&X&X&X&X&X&X&X&X&X&X&X&X&X&X&X&X&X&X&X&X&X&X&X&X&X&X&X&X&X&X&X&X&X&X&X&X&X&X&X&X&X&X&X&X&X&X&X&X&X&X&X&X",
"&X&X&X&X&X&X&X&X&X&X&X&X&X&X&X&X&X&X&X&X&X&X&X&X&X&X&X&X&X&X&X&X&X&X&X&X&X&X&X&X&X&X&X&X&X&X&X&X&X&X&X&X&X&X&X&X&X&X&X&X&X&X&X&X&X&X&X&X&X&X&X&X&X&X&X&X&X&X&X&X",
"&X&X&X&X&X&X&X&X&X&X&X&X&X&X&X&X&X&X&X&X&X&X&X&X&X&X&X&X&X&X&X&X&X&X&X&X&X&X&X&X&X&X&X&X&X&X&X&X&X&X&X&X&X&X&X&X&X&X&X&X&X&X&X&X&X&X&X&X&X&X&X&X&X&X&X&X&X&X&X&X",
"&X&X&X&X&X&X&X&X&X&X&X&X&X&X&X&X&X&X&X&X&X&X&X&X&X&X&X&X&X&X&X&X&X&X&X&X&X&X&X&X&X&X&X&X&X&X&X&X&X&X&X&X&X&X&X&X&X&X&X&X&X&X&X&X&X&X&X&X&X&X&X&X&X&X&X&X&X&X&X&X",
"&X&X&X&X&X&X&X&X&X&X&X&X&X&X&X&X&X&X&X&X&X&X&X&X&X&X&X&X&X&X&X&X&X&X&X&X&X&X&X&X&X&X&X&X&X&X&X&X&X&X&X&X&X&X&X&X&X&X&X&X&X&X&X&X&X&X&X&X&X&X&X&X&X&X&X&X&X&X&X&X",
"&X&X&X&X&X&X&X&X&X&X&X&X&X&X&X&X&X&X&X&X&X&X&X&X&X&X&X&X&X&X&X&X&X&X&X&X&X&X&X&X&X&X&X&X&X&X&X&X&X&X&X&X&X&X&X&X&X&X&X&X&X&X&X&X&X&X&X&X&X&X&X&X&X&X&X&X&X&X&X&X",
"&X&X&X&X&X&X&X&X&X&X&X&X&X&X&X&X&X&X&X&X&X&X&X&X&X&X&X&X&X&X&X&X&X&X&X&X&X&X&X&X&X&X&X&X&X&X&X&X&X&X&X&X&X&X&X&X&X&X&X&X&X&X&X&X&X&X&X&X&X&X&X&X&X&X&X&X&X&X&X&X",
"&X&X&X&X&X&X&X&X&X&X&X&X&X&X&X&X&X&X&X&X&X&X&X&X&X&X&X&X&X&X&X&X&X&X&X&X&X&X&X&X&X&X&X&X&X&X&X&X&X&X&X&X&X&X&X&X&X&X&X&X&X&X&X&X&X&X&X&X&X&X&X&X&X&X&X&X&X&X&X&X",
"&X&X&X&X&X&X&X&X&X&X&X&X&X&X&X&X&X&X&X&X&X&X&X&X&X&X&X&X&X&X&X&X&X&X&X&X&X&X&X&X&X&X&X&X&X&X&X&X&X&X&X&X&X&X&X&X&X&X&X&X&X&X&X&X&X&X&X&X&X&X&X&X&X&X&X&X&X&X&X&X",
"&X&X&X&X&X&X&X&X&X&X&X&X&X&X&X&X&X&X&X&X&X&X&X&X&X&X&X&X&X&X&X&X&X&X&X&X&X&X&X&X&X&X&X&X&X&X&X&X&X&X&X&X&X&X&X&X&X&X&X&X&X&X&X&X&X&X&X&X&X&X&X&X&X&X&X&X&X&X&X&X",
"&X&X&X&X&X&X&X&X&X&X&X&X&X&X&X&X&X&X&X&X&X&X&X&X&X&X&X&X&X&X&X&X&X&X&X&X&X&X&X&X&X&X&X&X&X&X&X&X&X&X&X&X&X&X&X&X&X&X&X&X&X&X&X&X&X&X&X&X&X&X&X&X&X&X&X&X&X&X&X&X",
"&X&X&X&X&X&X&X&X&X&X&X&X&X&X&X&X&X&X&X&X&X&X&X&X&X&X&X&X&X&X&X&X&X&X&X&X&X&X&X&X&X&X&X&X&X&X&X&X&X&X&X&X&X&X&X&X&X&X&X&X&X&X&X&X&X&X&X&X&X&X&X&X&X&X&X&X&X&X&X&X",
"&X&X&X&X&X&X&X&X&X&X&X&X&X&X&X&X&X&X&X&X&X&X&X&X&X&X&X&X&X&X&X&X&X&X&X&X&X&X&X&X&X&X&X&X&X&X&X&X&X&X&X&X&X&X&X&X&X&X&X&X&X&X&X&X&X&X&X&X&X&X&X&X&X&X&X&X&X&X&X&X",
"&X&X&X&X&X&X&X&X&X&X&X&X&X&X&X&X&X&X&X&X&X&X&X&X&X&X&X&X&X&X&X&X&X&X&X&X&X&X&X&X&X&X&X&X&X&X&X&X&X&X&X&X&X&X&X&X&X&X&X&X&X&X&X&X&X&X&X&X&X&X&X&X&X&X&X&X&X&X&X&X",
"&X&X&X&X&X&X&X&X&X&X&X&X&X&X&X&X&X&X&X&X&X&X&X&X&X&X&X&X&X&X&X&X&X&X&X&X&X&X&X&X&X&X&X&X&X&X&X&X&X&X&X&X&X&X&X&X&X&X&X&X&X&X&X&X&X&X&X&X&X&X&X&X&X&X&X&X&X&X&X&X",
"&X&X&X&X&X&X&X&X&X&X&X&X&X&X&X&X&X&X&X&X&X&X&X&X&X&X&X&X&X&X&X&X&X&X&X&X&X&X&X&X&X&X&X&X&X&X&X&X&X&X&X&X&X&X&X&X&X&X&X&X&X&X&X&X&X&X&X&X&X&X&X&X&X&X&X&X&X&X&X&X",
"&X&X&X&X&X&X&X&X&X&X&X&X&X&X&X&X&X&X&X&X&X&X&X&X&X&X&X&X&X&X&X&X&X&X&X&X&X&X&X&X&X&X&X&X&X&X&X&X&X&X&X&X&X&X&X&X&X&X&X&X&X&X&X&X&X&X&X&X&X&X&X&X&X&X&X&X&X&X&X&X",
"&X&X&X&X&X&X&X&X&X&X&X&X&X&X&X&X&X&X&X&X&X&X&X&X&X&X&X&X&X&X&X&X&X&X&X&X&X&X&X&X&X&X&X&X&X&X&X&X&X&X&X&X&X&X&X&X&X&X&X&X&X&X&X&X&X&X&X&X&X&X&X&X&X&X&X&X&X&X&X&X"
};
