/* XPM */
static char *result[] = {
/* columns rows colors chars-per-pixel */
"80 80 130 2 ",
"   c #376A1A",
".  c #3A6E1B",
"X  c #41751B",
"o  c #457B1C",
"O  c #487E1D",
"+  c #427522",
"@  c #467A24",
"#  c #497E24",
"$  c #4C7F2A",
"%  c #4E851E",
"&  c #578F1E",
"*  c #57901C",
"=  c #5D961D",
"-  c #629F16",
";  c #60971F",
":  c #639B1E",
">  c #65A316",
",  c #68A617",
"<  c #6BA917",
"1  c #66A11B",
"2  c #6BA51C",
"3  c #6EAB1A",
"4  c #72AD1C",
"5  c #75B616",
"6  c #77B915",
"7  c #7BBB16",
"8  c #75B41A",
"9  c #7AB51D",
"0  c #77B81A",
"q  c #7CBB1B",
"w  c #4D8324",
"e  c #4E812A",
"r  c #518624",
"t  c #548A22",
"y  c #598E24",
"u  c #51842D",
"i  c #558A2A",
"p  c #5A8D2E",
"a  c #5D9323",
"s  c #518232",
"d  c #619624",
"f  c #649B24",
"g  c #689F24",
"h  c #62962C",
"j  c #63992A",
"k  c #6D9E2E",
"l  c #649631",
"z  c #679A31",
"x  c #689C30",
"c  c #67A020",
"v  c #6CA324",
"b  c #6FA922",
"n  c #6AA02A",
"m  c #70A624",
"M  c #74AB24",
"N  c #78AF24",
"B  c #71A62A",
"V  c #76AB2B",
"C  c #7CB323",
"Z  c #7DB921",
"A  c #7DB42A",
"S  c #79AD32",
"D  c #7FC017",
"F  c #82BD1D",
"G  c #80B724",
"H  c #83BB23",
"J  c #89BE24",
"K  c #81B62B",
"L  c #83B82F",
"P  c #89BD2E",
"I  c #8FBC35",
"U  c #82C117",
"Y  c #84C21A",
"T  c #8AC51D",
"R  c #8CC91C",
"E  c #91CB1F",
"W  c #9CD41E",
"Q  c #A1D61F",
"!  c #AADD1F",
"~  c #85C121",
"^  c #8BC324",
"/  c #8EC823",
"(  c #91C624",
")  c #93CB23",
"_  c #99CE23",
"`  c #92C62A",
"'  c #95CA2C",
"]  c #96D023",
"[  c #9BD323",
"{  c #9FD924",
"}  c #9ED42B",
"|  c #91C435",
" . c #A1D423",
".. c #A3DC24",
"X. c #AADD24",
"o. c #A2D52D",
"O. c #A5DA2C",
"+. c #ADDE28",
"@. c #ACDC32",
"#. c #ABDA38",
"$. c #B1DF3F",
"%. c #AEE123",
"&. c #B2E324",
"*. c #B9E826",
"=. c #B3E22C",
"-. c #B6E33B",
";. c #C0EE24",
":. c #C4EE2F",
">. c #C2EC38",
",. c #ABDA4C",
"<. c #B4DE45",
"1. c #B5DF4A",
"2. c #BAE347",
"3. c #BEE64E",
"4. c #BDE558",
"5. c #C2E94D",
"6. c #C9F040",
"7. c #CBEE5A",
"8. c #C1E460",
"9. c #CBEC6B",
"0. c #D0EE6C",
"q. c #CFF061",
"w. c #CCEB76",
"e. c #D5F17A",
"r. c #D6F185",
"t. c #D6F08D",
"y. c #DDF58A",
"u. c #DEF39C",
"i. c #E4F89E",
"p. c None",
/* pixels */
"p.p.p.p.p.p.p.p.p.p.p.p.p.p.p.p.p.p.p.p.p.p.p.p.p.p.p.p.p.p.p.p.p.p.p.p.p.p.p.p.p.p.p.p.p.p.p.p.p.p.p.p.p.p.p.p.p.p.p.p.p.p.p.p.p.p.p.p.p.p.p.p.p.p.p.p.p.p.p.p.",
"p.p.p.p.p.p.p.p.p.p.p.p.p.p.p.p.p.p.p.p.p.p.p.p.p.p.p.p.p.p.p.p.p.p.p.p.p.p.p.p.p.p.p.p.p.p.p.p.p.p.p.p.p.p.p.p.p.p.p.p.p.p.p.p.p.p.p.p.p.p.p.p.p.p.p.p.p.p.p.p.",
"p.p.p.p.p.p.p.p.p.p.p.p.p.p.p.p.p.p.p.p.p.p.p.p.p.p.p.p.p.p.p.p.p.p.p.p.p.p.p.p.p.p.p.p.p.p.p.p.p.p.p.p.p.p.p.p.p.p.p.p.p.p.p.p.p.p.p.p.p.p.p.p.p.p.p.p.p.p.p.p.",
"p.p.p.p.p.p.p.p.p.p.p.p.p.p.p.p.p.p.p.p.p.p.p.p.p.p.p.p.p.p.p.p.p.p.p.p.p.p.p.p.p.p.p.p.p.p.p.p.p.p.p.p.p.p.p.p.p.p.p.p.p.p.p.p.p.p.p.p.p.p.p.p.p.p.p.p.p.p.p.p.",
"p.p.p.p.p.p.p.p.p.p.p.p.p.p.p.p.p.p.p.p.p.p.p.p.p.p.p.p.p.p.p.p.p.p.p.p.p.p.p.p.p.p.p.p.p.p.p.p.p.p.p.p.p.p.p.p.p.p.p.p.p.p.p.p.p.p.p.p.p.p.p.p.p.p.p.p.p.p.p.p.",
"p.p.p.p.p.p.p.p.p.p.p.p.p.p.p.p.p.p.p.p.p.p.p.p.p.p.p.p.p.p.p.p.p.p.p.p.p.p.p.p.p.p.p.p.p.p.p.p.p.p.p.p.p.p.p.p.p.p.p.p.p.p.p.p.p.p.p.p.p.p.p.p.p.p.p.p.p.p.p.p.",
"p.p.p.p.p.p.p.p.p.p.p.p.p.p.p.p.p.p.p.p.p.p.p.p.p.p.p.p.p.p.p.p.p.p.p.p.p.p.p.p.p.p.p.p.p.p.p.p.p.p.p.p.p.p.p.p.p.p.p.p.p.p.p.p.p.p.p.p.p.p.p.p.p.p.p.p.p.p.p.p.",
"p.p.p.p.p.p.p.p.p.p.p.p.p.p.p.p.p.p.p.p.p.p.p.p.p.p.p.p.p.p.p.p.p.p.p.p.p.p.p.p.p.p.p.p.p.p.p.p.p.p.p.p.p.p.p.p.p.p.p.p.p.p.p.p.p.p.p.p.p.p.p.p.p.p.p.p.p.p.p.p.",
"p.p.p.p.p.p.p.p.p.p.p.p.p.p.p.p.p.p.p.p.p.p.p.p.p.p.p.p.p.p.p.p.p.p.p.p.p.p.p.p.p.p.p.p.p.p.p.p.p.p.p.p.p.p.p.p.p.p.p.p.p.p.p.p.p.p.p.p.p.p.p.p.p.p.p.p.p.p.p.p.",
"p.p.p.p.p.p.p.p.p.p.p.p.p.p.p.p.p.p.p.p.p.p.p.p.p.p.p.p.p.p.p.p.p.p.p.p.p.p.p.p.p.p.p.p.p.p.p.p.p.p.p.p.p.p.p.p.p.p.p.p.p.p.p.p.p.p.p.p.p.p.p.p.p.p.p.p.p.p.p.p.",
"p.p.p.p.p.p.p.p.p.p.p.p.p.p.p.p.p.p.p.p.p.p.p.p.p.p.p.p.p.p.p.p.p.p.p.p.p.p.p.p.p.p.p.p.p.p.p.p.p.p.p.p.p.p.p.p.p.p.p.p.p.p.p.p.p.p.p.p.p.p.p.p.p.p.p.p.p.p.p.p.",
"p.p.p.p.p.p.p.p.p.p.p.p.p.p.p.p.p.p.p.p.p.p.p.p.p.p.p.p.p.p.p.p.p.p.p.p.p.p.p.p.p.p.p.p.p.p.p.p.p.p.p.p.p.p.p.p.p.p.p.p.p.p.p.p.p.p.p.p.p.p.p.p.p.p.p.p.p.p.p.p.",
"p.p.p.p.p.p.p.p.p.p.p.p.p.p.p.p.p.p.p.p.p.p.p.p.p.p.p.p.p.p.p.p.p.p.p.p.p.p.p.p.p.p.p.p.p.p.p.p.p.p.p.p.p.p.p.p.p.p.p.p.p.p.p.p.p.p.p.p.p.p.p.p.p.p.p.p.p.p.p.p.",
"p.p.p.p.p.p.p.p.p.p.p.p.p.p.p.p.p.p.p.p.p.p.p.p.p.p.p.p.p.p.p.p.p.p.p.p.p.p.p.p.p.p.p.p.p.p.p.p.p.p.p.p.p.p.p.p.p.p.p.p.p.p.p.p.p.p.p.p.p.p.p.p.p.p.p.p.p.p.p.p.",
"p.p.p.p.p.p.p.p.p.p.p.p.p.p.p.p.p.p.p.p.p.p.p.p.p.p.p.p.p.p.p.p.p.p.p.p.p.p.p.p.p.p.p.p.p.p.p.p.p.p.p.p.p.p.p.p.p.p.p.p.p.p.p.p.p.p.p.p.p.p.p.p.p.p.p.p.p.p.p.p.",
"p.p.p.p.p.p.p.p.p.p.p.p.p.p.p.p.p.p.p.p.p.p.p.p.p.p.p.p.p.p.p.p.p.p.p.p.p.p.p.p.p.p.p.p.p.p.p.p.p.p.p.p.p.p.p.p.p.p.p.p.p.p.p.p.p.p.p.p.p.p.p.p.p.p.p.p.p.p.p.p.",
"p.p.p.p.p.p.p.p.p.p.p.p.p.p.p.p.p.p.p.p.p.p.p.p.p.p.p.p.p.p.p.p.p.p.p.p.p.p.p.p.p.p.p.p.p.p.p.p.p.p.p.p.p.p.p.p.p.p.p.p.p.p.p.p.p.p.p.p.p.p.p.p.p.p.p.p.p.p.p.p.",
"p.p.p.p.p.p.p.p.p.p.p.p.p.p.p.p.p.p.p.p.p.p.p.p.p.p.p.p.p.p.p.p.p.p.p.p.p.p.p.p.p.p.p.p.p.p.p.p.p.p.p.p.p.p.p.p.p.p.p.p.p.p.p.p.p.p.p.p.p.p.p.p.p.p.p.p.p.p.p.p.",
"p.p.p.p.p.p.p.p.p.p.p.p.p.p.p.p.p.p.p.p.p.p.p.p.p.p.p.p.p.p.p.p.p.p.p.p.p.p.p.p.p.p.p.p.p.p.p.p.p.p.p.p.p.p.p.p.p.p.p.p.p.p.p.p.p.p.p.p.p.p.p.p.p.p.p.p.p.p.p.p.",
"p.p.p.p.p.p.p.p.p.p.p.p.p.p.p.p.p.p.p.p.p.p.p.p.p.p.p.p.p.p.p.p.p.p.p.p.p.p.p.p.p.p.p.p.p.p.p.p.p.p.p.p.p.p.p.p.p.p.p.p.p.p.p.p.p.p.p.p.p.p.p.p.p.p.p.p.p.p.p.p.",
"p.p.p.p.p.p.p.p.p.p.p.p.p.p.p.p.p.p.p.p.p.p.p.p.p.p.p.p.p.p.p.p.p.p.p.p.p.p.p.p.p.p.p.p.p.p.p.p.p.p.p.p.p.p.p.p.p.p.p.p.p.p.p.p.p.p.p.p.p.p.p.p.p.p.p.p.p.p.p.p.",
"p.p.p.p.p.p.p.p.p.p.p.p.p.p.p.p.p.p.p.p.p.p.p.p.p.p.p.p.p.p.p.p.p.p.p.p.p.p.p.p.p.p.p.p.p.p.p.p.p.p.p.p.p.p.p.p.p.p.p.p.p.p.p.p.p.p.p.p.p.p.p.p.p.p.p.p.p.p.p.p.",
"p.p.p.p.p.p.p.p.p.p.p.p.p.p.p.p.p.p.p.p.p.p.p.p.p.p.p.p.p.p.p.p.p.p.p.p.p.p.p.p.p.p.p.p.p.p.p.p.p.p.p.p.p.p.p.p.p.p.p.p.p.p.p.p.p.p.p.p.p.p.p.p.p.p.p.p.p.p.p.p.",
"p.p.p.p.p.p.p.p.p.p.p.p.p.p.p.p.p.p.p.p.p.p.p.p.p.p.p.p.p.p.p.p.p.p.p.p.p.p.p.p.p.p.p.p.p.p.p.p.p.p.p.p.p.p.p.p.p.p.p.p.p.p.p.p.p.p.p.p.p.p.p.p.p.p.p.p.p.p.p.p.",
"p.p.p.p.p.p.p.p.p.p.p.p.p.p.p.p.p.p.p.p.p.p.p.p.p.p.p.p.p.p.p.p.p.p.p.p.p.p.p.p.p.p.p.p.p.p.p.p.p.p.p.p.p.p.p.p.p.p.p.p.p.p.p.p.p.p.p.p.p.p.p.p.p.p.p.p.p.p.p.p.",
"p.p.p.p.p.p.p.p.p.p.p.p.p.p.p.p.p.p.p.p.p.p.p.p.p.p.p.p.p.p.p.p.p.p.p.p.p.p.p.p.p.p.p.p.p.p.p.p.p.p.p.p.p.p.p.p.p.p.p.p.p.p.p.p.p.p.p.p.p.p.p.p.p.p.p.p.p.p.p.p.",
"p.p.p.p.p.p.p.p.p.p.p.p.p.p.p.p.p.p.p.p.p.p.p.p.p.p.p.p.p.p.p.p.p.p.p.p.p.p.p.p.p.p.p.p.p.p.p.p.p.p.p.p.p.p.p.p.p.p.p.p.p.p.p.p.p.p.p.p.p.p.p.p.p.p.p.p.p.p.p.p.",
"p.p.p.p.p.p.p.p.p.p.p.p.p.p.p.p.p.p.p.p.p.p.p.p.p.p.p.p.p.p.p.p.p.p.p.p.p.p.p.p.p.p.p.p.p.p.p.p.p.p.p.p.p.p.p.p.p.p.p.p.p.p.p.p.p.p.p.p.p.p.p.p.p.p.p.p.p.p.p.p.",
"p.p.p.p.p.p.p.p.p.p.p.p.p.p.p.p.p.p.p.p.p.p.p.p.p.p.p.p.p.p.p.p.p.p.p.p.p.p.p.p.p.p.p.p.p.p.p.p.p.p.p.p.p.p.p.p.p.p.p.p.p.p.p.p.p.p.p.p.p.p.p.p.p.p.p.p.p.p.p.p.",
"p.p.p.p.p.p.p.p.p.p.p.p.p.p.p.p.p.p.p.p.p.p.p.p.p.p.p.p.p.p.p.p.p.p.p.p.p.p.p.p.p.p.p.p.p.p.p.p.p.p.p.p.p.p.p.p.p.p.p.p.p.p.p.p.p.p.p.p.p.p.p.p.p.p.p.p.p.p.p.p.",
"p.p.p.p.p.p.p.p.p.p.p.p.p.p.p.p.p.p.p.p.p.p.p.p.p.p.p.p.p.p.p.p.p.p.p.p.p.p.p.p.p.p.p.p.p.p.p.p.p.p.p.p.p.p.p.p.p.p.p.p.p.p.p.p.p.p.p.p.p.p.p.p.p.p.p.p.p.p.p.p.",
"p.p.p.p.p.p.p.p.p.p.p.p.p.p.p.p.p.p.p.p.p.p.p.p.p.p.p.p.p.p.p.p.p.p.p.p.p.p.p.p.p.p.p.p.p.p.p.p.p.p.p.p.p.p.p.p.p.p.p.p.p.p.p.p.p.p.p.p.p.p.p.p.p.p.p.p.p.p.p.p.",
"p.p.p.p.p.p.p.p.p.p.p.p.p.p.p.p.p.p.p.p.p.p.p.p.p.p.p.p.p.p.p.p.p.p.p.p.p.p.p.p.p.p.p.p.p.p.p.p.p.p.p.p.p.p.p.p.p.p.p.p.p.p.p.p.p.p.p.p.p.p.p.p.p.p.p.p.p.p.p.p.",
"p.p.p.p.p.p.p.p.p.p.p.p.p.  . . @ p.p.p.p.p.p.p.p.p.p.p.p.p.w t p.p.p.p.p.p.p.p.p.p.p.p.p.p.p.p.p.p.p.p.p.j v p.p.p.p.p.p.p.p.p.p.p.p.p.p.p.p.p.p.p.p.p.p.p.p.p.",
"p.p.p.p.p.p.p.p.p.p.p.p.p.+ @ @ @ + @ $ e e u i p.e X w w o o % y l p.p.p.p.p.p.p.p.p.p.p.p.p.p.p.p.p.p.d : 2 m p.p.p.p.p.p.p.p.p.p.p.p.p.p.p.p.p.p.p.p.p.p.p.p.",
"p.p.p.p.p.p.p.p.p.p.p.p.p.@ # # # @ o # w w u r w r O % w & % % t a h k p.p.p.p.p.p.p.p.p.p.p.p.p.p.p.j g 2 v M A p.p.p.p.` ' p.p.p.p.p.p.p.p.p.p.p.p.p.p.p.p.p.",
"p.p.p.p.p.p.p.p.p.p.p.p.p.p.@ e e w w w r r t t t % t & y y a a a & a f f n p.p.p.p.p.p.p.p.p.p.p.n g 2 M M M N C p.p.p.` ( ^ ( p.p.p.p.p.p.p.p.p.p.p.p.p.p.p.p.",
"p.p.p.p.p.p.p.p.p.p.p.p.p.p.o w w r t t t t y y a y y a a a a f d f f f g g v n n B V S S V B m m M M C C C N C K | ' ( ^ G 3 G p.p.p.p.p.p.p.p.p.p.p.p.p.p.p.p.",
"p.p.p.p.p.p.p.p.p.p.p.p.p.$ o w t t t t y y & y a a a d a f f f g g n v n v v v M b M M N N N N C C C G G G H J ^ ^ ^ F 4 , , H p.p.p.p.p.p.p.p.p.p.p.p.p.p.p.p.",
"p.p.p.p.p.p.p.p.e e r r # O O & i y a a a a & & a f f f g g g g g v v v v v M M m M N N N M N C C C C G G F H F 9 9 4 3 , > , ^ p.p.p.p.p.p.p.p.p.p.p.p.p.p.p.p.",
"p.p.p.p.p.p.p.p.i t r t t t y y a a a d d d a * a g g g g v n v v m m M M M M M M N N C Z A G Z C C C C C 9 C 9 9 4 8 4 , , , F @.p.p.3.3.3.3.5.p.p.p.p.p.p.p.p.",
"p.p.p.p.p.p.p.p.p.y y y y a a a d a a f f f g = = g v v v v M b m m M M N C A C N C C C G G G J ^ ^ ^ ^ ( ^ ^ ( ( ( ( ( ^ T E [ X.2.w.t.u.u.i.e.7.>.p.p.p.p.p.p.",
"p.p.p.p.p.p.p.p.p.h a a h a d a f j g f g g v g ; : v v v v M M N M N N N N Z G J H G G G G H J J ~ ^ ^ ^ ( ) ) _ ) [ [ [ [ _ _ [ _ [ [ } o.O.X.=.*.:.p.p.p.p.p.",
"p.p.p.p.p.p.p.p.p.j a a d f j g f f g v g v v v v 2 v M M N N N C C C C C C C Z Z J ( ^ ^ ^ J ^ ^ ^ / ( ( ) ) ) ( ) ( ) ) ) ) ) ] ) ( ) R T q q U R Q p.p.p.p.p.",
"p.p.p.p.p.j h d d f f f f f g v v v v n v v M b M m M M N M C A C C H G G G G G Z C H ~ ) _ _ ) ( ( / ` ( ) ) ) _ [ [  . .[ [ [ [ [ [ [ [ [ ~ D 7 7 7 T p.p.p.p.",
"p.p.p.p.p.j f j f g f f g v g v v v v M M M M M V N C C C N C Z G C Z ~ ^ J J ~ J J H Z q F ( [  ... .[ [ _ ) ) E ) ) E W  .%.%.%.! X.T C 0 Y D D 7 5 0 p.p.p.p.",
"p.p.p.p.p.j f f : ; ; v v v v v M m M M M N N N N C C Z Z G C Z H H H G J ( ^ ^ ^ ` ^ ^ H q F q T E [ X.&.&.=.-.-.=...[ E R R W &.;. .w @ w a 1 8 0 0 Z p.p.p.p.",
"p.p.p.p.p.p.f = = : m b m m v 2 N C M N N A N Z C C G G G G G Z H ^ ^ ~ G ~ ) ( ^ ^ / ( ) ) ^ F q 8 6 F E ..=.q.0.I d a C ] Y U Y X.J $ $ e $ e p.p.p.p.p.p.p.p.",
"p.p.p.p.p.p.p.V G G M m M M m 2 G C C N N G G G G G G H H P ~ H Z F ) ( ^ H Y ) [ ) ) ) ] ] ] ] T q 5 5 5 0 Y &.( # @ @ # v Y U 7 Y p.p.p.p.p.p.p.p.p.p.p.p.p.p.",
"p.p.p.p.p.p.p.p.' Z M M N N v 2 J H G G N 9 J H H H J J ^ ~ ~ ^ H G F ) ] / ^ F ) { [ ] ] ] ] ] [ ) F 6 5 7 6 Y d @ # # @ w 8 D 7 7 p.p.p.p.p.p.p.p.p.p.p.p.p.p.",
"p.p.p.p.p.p.p.p.I N N N N M 2 2 ( ^ K Z 9 4 ( J J ^ ^ ^ ^ ` ^ / T 9 9 T [ [ ] ^ q T .. .] { [ { { { R 7 5 7 7 0 p u $ # @ @ y 5 6 5 p.p.p.p.p.p.p.p.p.p.p.p.p.p.",
"p.p.p.p.p.p.p.p.A C C C C 3 > 4  .[ G J G 4 T ) ^ ^ ^ ^ / / / / / F q F T X.[ [ / F T ..%.[ W { ....[ F 7 7 5 Z p.p.p.p.p.e e a 0 0 p.p.p.p.p.p.p.p.p.p.p.p.p.p.",
"p.p.p.p.p.p.p.p.K C G C 4 - - F %.O.^ ^ q 3 ~ #./ ^ / / ) ) ) ] ) Y Y H F R %.-.[ R D U 2.9.,.) W { [ D 6 5 0 p.p.p.p.p.p.p.p.p.p.p.p.p.p.p.p.p.p.p.p.p.p.p.p.p.",
"p.p.p.p.p.p.p.p.L Z C 4 2 > 2 p.p.p.^ ^ 9 < ^ 8.} ( ) ) ) ] ] ] [ / Y U F F ) r.4.W T 7 q 2.y.#.Y U U 7 6 6 0 p.p.p.p.p.p.p.p.p.p.p.p.p.p.p.p.p.p.p.p.p.p.p.p.p.",
"p.p.p.p.p.p.p.p.p.A C M m M p.p.p.p.p.0 3 < ^ n V ) ] ] ] ] [ } [ ] Y F 7 7 7 2.i.-.R 7 7 D =.I v 5 6 6 6 5 p.p.p.p.p.p.p.p.p.p.p.p.p.p.p.p.p.p.p.p.p.p.p.p.p.p.",
"p.p.p.p.p.p.p.p.p.p.p.p.p.p.p.p.p.p.p.A 3 M p.p.e H [ [ } ] { [ { [ T D 7 5 7 E >.<.v 8 5 5 F p.p.n 0 0 0 p.p.p.p.p.p.p.p.p.p.p.p.p.p.p.p.p.p.p.p.p.p.p.p.p.p.p.",
"p.p.p.p.p.p.p.p.p.p.p.p.p.p.p.p.p.p.p.p.p.p.p.p.s j ] { { { ....{ { R D D 5 5 D *.p.p.h 8 0 p.p.p.p.p.p.p.p.p.p.p.p.p.p.p.p.p.p.p.p.p.p.p.p.p.p.p.p.p.p.p.p.p.p.",
"p.p.p.p.p.p.p.p.p.p.p.p.p.p.p.p.p.p.p.p.p.p.p.p.p.p / { { { ....{ ..~ D D D 5 D p.p.p.p.p.p.p.p.p.p.p.p.p.p.p.p.p.p.p.p.p.p.p.p.p.p.p.p.p.p.p.p.p.p.p.p.p.p.p.p.",
"p.p.p.p.p.p.p.p.p.p.p.p.p.p.p.p.p.p.p.p.p.p.p.p.p.p.A { ........%.%.R D D 6 5 D p.p.p.p.p.p.p.p.p.p.p.p.p.p.p.p.p.p.p.p.p.p.p.p.p.p.p.p.p.p.p.p.p.p.p.p.p.p.p.p.",
"p.p.p.p.p.p.p.p.p.p.p.p.p.p.p.p.p.p.p.p.p.p.p.p.p.p.p.' ........{ { R D 6 5 0 p.p.p.p.p.p.p.p.p.p.p.p.p.p.p.p.p.p.p.p.p.p.p.p.p.p.p.p.p.p.p.p.p.p.p.p.p.p.p.p.p.",
"p.p.p.p.p.p.p.p.p.p.p.p.p.p.p.p.p.p.p.p.p.p.p.p.p.p.p.p.=.{ { ..%.{ U 6 6 5 Z p.p.p.p.p.p.p.p.p.p.p.p.p.p.p.p.p.p.p.p.p.p.p.p.p.p.p.p.p.p.p.p.p.p.p.p.p.p.p.p.p.",
"p.p.p.p.p.p.p.p.p.p.p.p.p.p.p.p.p.p.p.p.p.p.p.p.p.p.p.p.p.} { { [ R 7 7 0 p.p.p.p.p.p.p.p.p.p.p.p.p.p.p.p.p.p.p.p.p.p.p.p.p.p.p.p.p.p.p.p.p.p.p.p.p.p.p.p.p.p.p.",
"p.p.p.p.p.p.p.p.p.p.p.p.p.p.p.p.p.p.p.p.p.p.p.p.p.p.p.p.p.p.p.p.p.p.p.p.p.p.p.p.p.p.p.p.p.p.p.p.p.p.p.p.p.p.p.p.p.p.p.p.p.p.p.p.p.p.p.p.p.p.p.p.p.p.p.p.p.p.p.p.",
"p.p.p.p.p.p.p.p.p.p.p.p.p.p.p.p.p.p.p.p.p.p.p.p.p.p.p.p.p.p.p.p.p.p.p.p.p.p.p.p.p.p.p.p.p.p.p.p.p.p.p.p.p.p.p.p.p.p.p.p.p.p.p.p.p.p.p.p.p.p.p.p.p.p.p.p.p.p.p.p.",
"p.p.p.p.p.p.p.p.p.p.p.p.p.p.p.p.p.p.p.p.p.p.p.p.p.p.p.p.p.p.p.p.p.p.p.p.p.p.p.p.p.p.p.p.p.p.p.p.p.p.p.p.p.p.p.p.p.p.p.p.p.p.p.p.p.p.p.p.p.p.p.p.p.p.p.p.p.p.p.p.",
"p.p.p.p.p.p.p.p.p.p.p.p.p.p.p.p.p.p.p.p.p.p.p.p.p.p.p.p.p.p.p.p.p.p.p.p.p.p.p.p.p.p.p.p.p.p.p.p.p.p.p.p.p.p.p.p.p.p.p.p.p.p.p.p.p.p.p.p.p.p.p.p.p.p.p.p.p.p.p.p.",
"p.p.p.p.p.p.p.p.p.p.p.p.p.p.p.p.p.p.p.p.p.p.p.p.p.p.p.p.p.p.p.p.p.p.p.p.p.p.p.p.p.p.p.p.p.p.p.p.p.p.p.p.p.p.p.p.p.p.p.p.p.p.p.p.p.p.p.p.p.p.p.p.p.p.p.p.p.p.p.p.",
"p.p.p.p.p.p.p.p.p.p.p.p.p.p.p.p.p.p.p.p.p.p.p.p.p.p.p.p.p.p.p.p.p.p.p.p.p.p.p.p.p.p.p.p.p.p.p.p.p.p.p.p.p.p.p.p.p.p.p.p.p.p.p.p.p.p.p.p.p.p.p.p.p.p.p.p.p.p.p.p.",
"p.p.p.p.p.p.p.p.p.p.p.p.p.p.p.p.p.p.p.p.p.p.p.p.p.p.p.p.p.p.p.p.p.p.p.p.p.p.p.p.p.p.p.p.p.p.p.p.p.p.p.p.p.p.p.p.p.p.p.p.p.p.p.p.p.p.p.p.p.p.p.p.p.p.p.p.p.p.p.p.",
"p.p.p.p.p.p.p.p.p.p.p.p.p.p.p.p.p.p.p.p.p.p.p.p.p.p.p.p.p.p.p.p.p.p.p.p.p.p.p.p.p.p.p.p.p.p.p.p.p.p.p.p.p.p.p.p.p.p.p.p.p.p.p.p.p.p.p.p.p.p.p.p.p.p.p.p.p.p.p.p.",
"p.p.p.p.p.p.p.p.p.p.p.p.p.p.p.p.p.p.p.p.p.p.p.p.p.p.p.p.p.p.p.p.p.p.p.p.p.p.p.p.p.p.p.p.p.p.p.p.p.p.p.p.p.p.p.p.p.p.p.p.p.p.p.p.p.p.p.p.p.p.p.p.p.p.p.p.p.p.p.p.",
"p.p.p.p.p.p.p.p.p.p.p.p.p.p.p.p.p.p.p.p.p.p.p.p.p.p.p.p.p.p.p.p.p.p.p.p.p.p.p.p.p.p.p.p.p.p.p.p.p.p.p.p.p.p.p.p.p.p.p.p.p.p.p.p.p.p.p.p.p.p.p.p.p.p.p.p.p.p.p.p.",
"p.p.p.p.p.p.p.p.p.p.p.p.p.p.p.p.p.p.p.p.p.p.p.p.p.p.p.p.p.p.p.p.p.p.p.p.p.p.p.p.p.p.p.p.p.p.p.p.p.p.p.p.p.p.p.p.p.p.p.p.p.p.p.p.p.p.p.p.p.p.p.p.p.p.p.p.p.p.p.p.",
"p.p.p.p.p.p.p.p.p.p.p.p.p.p.p.p.p.p.p.p.p.p.p.p.p.p.p.p.p.p.p.p.p.p.p.p.p.p.p.p.p.p.p.p.p.p.p.p.p.p.p.p.p.p.p.p.p.p.p.p.p.p.p.p.p.p.p.p.p.p.p.p.p.p.p.p.p.p.p.p.",
"p.p.p.p.p.p.p.p.p.p.p.p.p.p.p.p.p.p.p.p.p.p.p.p.p.p.p.p.p.p.p.p.p.p.p.p.p.p.p.p.p.p.p.p.p.p.p.p.p.p.p.p.p.p.p.p.p.p.p.p.p.p.p.p.p.p.p.p.p.p.p.p.p.p.p.p.p.p.p.p.",
"p.p.p.p.p.p.p.p.p.p.p.p.p.p.p.p.p.p.p.p.p.p.p.p.p.p.p.p.p.p.p.p.p.p.p.p.p.p.p.p.p.p.p.p.p.p.p.p.p.p.p.p.p.p.p.p.p.p.p.p.p.p.p.p.p.p.p.p.p.p.p.p.p.p.p.p.p.p.p.p.",
"p.p.p.p.p.p.p.p.p.p.p.p.p.p.p.p.p.p.p.p.p.p.p.p.p.p.p.p.p.p.p.p.p.p.p.p.p.p.p.p.p.p.p.p.p.p.p.p.p.p.p.p.p.p.p.p.p.p.p.p.p.p.p.p.p.p.p.p.p.p.p.p.p.p.p.p.p.p.p.p.",
"p.p.p.p.p.p.p.p.p.p.p.p.p.p.p.p.p.p.p.p.p.p.p.p.p.p.p.p.p.p.p.p.p.p.p.p.p.p.p.p.p.p.p.p.p.p.p.p.p.p.p.p.p.p.p.p.p.p.p.p.p.p.p.p.p.p.p.p.p.p.p.p.p.p.p.p.p.p.p.p.",
"p.p.p.p.p.p.p.p.p.p.p.p.p.p.p.p.p.p.p.p.p.p.p.p.p.p.p.p.p.p.p.p.p.p.p.p.p.p.p.p.p.p.p.p.p.p.p.p.p.p.p.p.p.p.p.p.p.p.p.p.p.p.p.p.p.p.p.p.p.p.p.p.p.p.p.p.p.p.p.p.",
"p.p.p.p.p.p.p.p.p.p.p.p.p.p.p.p.p.p.p.p.p.p.p.p.p.p.p.p.p.p.p.p.p.p.p.p.p.p.p.p.p.p.p.p.p.p.p.p.p.p.p.p.p.p.p.p.p.p.p.p.p.p.p.p.p.p.p.p.p.p.p.p.p.p.p.p.p.p.p.p."
};
